/* XPM */
static char *_57b0083eff4493fd5dac506fd25a968CsHsq4q3PYdyahXt[] = {
/* columns rows colors chars-per-pixel */
"32 32 5 1 ",
"  c None",
". c black",
"X c #FF0200",
"o c #42FF00",
"O c #1C00A4",
/* pixels */
"                                ",
"           ..       ..          ",
"           ..O     O..          ",
"             O     O            ",
"             OO   OO            ",
"              OOOOO             ",
"              OoooO             ",
"             OoXoXoO            ",
"         O   OoooooO   O        ",
"        OOO  OoooooO  OOO       ",
"        O.OO  OOOOO  OO.O       ",
"         ..OO   O   OO..        ",
"          ...O OOO O...         ",
"             .OoooO.            ",
"        OOOOOOoooooOOOOO        ",
"       OO    OoooooO   OO       ",
"       O     OoooooO    O       ",
"       O     OOOOOOO    O       ",
"             O  O  O            ",
"            O  OoO  O           ",
"           O   OoO   O          ",
"          O    ...    O         ",
"         O     ...     O        ",
"         O    OoooO    O        ",
"         O   OoooooO   O        ",
"        .O.  OoooooO  .O.       ",
"        ...  OoooXoO  ...       ",
"             OooXXoO            ",
"             OoooooO            ",
"              OOOOO             ",
"                                ",
"                                "
};
