/* XPM */
static char *result[] = {
/* columns rows colors chars-per-pixel */
"64 64 7 1 ",
"  c black",
". c #744141",
"X c #FF0200",
"o c #AC5C56",
"O c #B57A6F",
"+ c #42FF00",
"@ c #1C00A4",
/* pixels */
"oooooooooooooooooooooooooooo....OOOOOOOOOOOOOOOOOOOOOOOOOOOO....",
"oooooooooooooooooooooooooooo....OOOOOOOOOOOOOOOOOOOOOOOOOOOO....",
"oooooooooooooooooooooo    oo....OOOOOOOO    OOOOOOOOOOOOOOOO....",
"oooooooooooooooooooooo    oo....OOOOOOOO    OOOOOOOOOOOOOOOO....",
"oooooooooooooooooooooo    @@....OOOOOO@@    OOOOOOOOOOOOOOOO....",
"oooooooooooooooooooooo    @@....OOOOOO@@    OOOOOOOOOOOOOOOO....",
"oooooooooooooooooooooooooo@@....OOOOOO@@OOOOOOOOOOOOOOOOOOOO....",
"oooooooooooooooooooooooooo@@....OOOOOO@@OOOOOOOOOOOOOOOOOOOO....",
"oooooooooooooooooooooooooo@@@@..OOOO@@@@OOOOOOOOOOOOOOOOOOOO....",
"oooooooooooooooooooooooooo@@@@..OOOO@@@@OOOOOOOOOOOOOOOOOOOO....",
"oooooooooooooooooooooooooooo@@@@@@@@@@OOOOOOOOOOOOOOOOOOOOOO....",
"oooooooooooooooooooooooooooo@@@@@@@@@@OOOOOOOOOOOOOOOOOOOOOO....",
"oooooooooooooooooooooooooooo@@++++++@@OOOOOOOOOOOOOOOOOOOOOO....",
"oooooooooooooooooooooooooooo@@++++++@@OOOOOOOOOOOOOOOOOOOOOO....",
"oooooooooooooooooooooooooo@@++XX++XX++@@OOOOOOOOOOOOOOOOOOOO....",
"oooooooooooooooooooooooooo@@++XX++XX++@@OOOOOOOOOOOOOOOOOOOO....",
"oooooooooooooooooo@@oooooo@@++++++++++@@OOOOOO@@OOOOOOOOOOOO....",
"oooooooooooooooooo@@oooooo@@++++++++++@@OOOOOO@@OOOOOOOOOOOO....",
"oooooooooooooooo@@@@@@oooo@@++++++++++@@OOOO@@@@@@OOOOOOOOOO....",
"oooooooooooooooo@@@@@@oooo@@++++++++++@@OOOO@@@@@@OOOOOOOOOO....",
"oooooooooooooooo@@  @@@@oooo@@@@@@@@@@OOOO@@@@  @@OOOOOOOOOO....",
"oooooooooooooooo@@  @@@@oooo@@@@@@@@@@OOOO@@@@  @@OOOOOOOOOO....",
"oooooooooooooooooo    @@@@oo....@@OOOOOO@@@@    OOOOOOOOOOOO....",
"oooooooooooooooooo    @@@@oo....@@OOOOOO@@@@    OOOOOOOOOOOO....",
"oooooooooooooooooooo      @@..@@@@@@..@@      ..................",
"oooooooooooooooooooo      @@..@@@@@@..@@      ..................",
"oooooooooooooooooooooooooo  @@++++++@@  ........................",
"oooooooooooooooooooooooooo  @@++++++@@  ........................",
"oooooooooooooooo@@@@@@@@@@@@++++++++++@@@@@@@@@@oooooooooooo....",
"oooooooooooooooo@@@@@@@@@@@@++++++++++@@@@@@@@@@oooooooooooo....",
"oooooooooooooo@@@@oooooooo@@++++++++++@@oooooo@@@@oooooooooo....",
"oooooooooooooo@@@@oooooooo@@++++++++++@@oooooo@@@@oooooooooo....",
"..............@@..........@@++++++++++@@oooooooo@@oooooooooo....",
"..............@@..........@@++++++++++@@oooooooo@@oooooooooo....",
"..............@@..........@@@@@@@@@@@@@@oooooooo@@oooooooooo....",
"..............@@..........@@@@@@@@@@@@@@oooooooo@@oooooooooo....",
"OOOOOOOOOOOOOOOOOOOOOOOOOO@@....@@oooo@@oooooooooooooooooooo....",
"OOOOOOOOOOOOOOOOOOOOOOOOOO@@....@@oooo@@oooooooooooooooooooo....",
"OOOOOOOOOOOOOOOOOOOOOOOO@@OO..@@++@@oooo@@oooooooooooooooooo....",
"OOOOOOOOOOOOOOOOOOOOOOOO@@OO..@@++@@oooo@@oooooooooooooooooo....",
"OOOOOOOOOOOOOOOOOOOOOO@@OOOO..@@++@@oooooo@@oooooooooooooooo....",
"OOOOOOOOOOOOOOOOOOOOOO@@OOOO..@@++@@oooooo@@oooooooooooooooo....",
"OOOOOOOOOOOOOOOOOOOO@@OOOOOO..      oooooooo@@oooooooooooooo....",
"OOOOOOOOOOOOOOOOOOOO@@OOOOOO..      oooooooo@@oooooooooooooo....",
"OOOOOOOOOOOOOOOOOO@@OOOOOOOO..      oooooooooo@@oooooooooooo....",
"OOOOOOOOOOOOOOOOOO@@OOOOOOOO..      oooooooooo@@oooooooooooo....",
"OOOOOOOOOOOOOOOOOO@@OOOOOOOO@@++++++@@oooooooo@@oooooooooooo....",
"OOOOOOOOOOOOOOOOOO@@OOOOOOOO@@++++++@@oooooooo@@oooooooooooo....",
"OOOOOOOOOOOOOOOOOO@@OOOOOO@@++++++++++@@oooooo@@oooooooooooo....",
"OOOOOOOOOOOOOOOOOO@@OOOOOO@@++++++++++@@oooooo@@oooooooooooo....",
"OOOOOOOOOOOOOOOO  @@  OOOO@@++++++++++@@oooo  @@  oooooooooo....",
"OOOOOOOOOOOOOOOO  @@  OOOO@@++++++++++@@oooo  @@  oooooooooo....",
"OOOOOOOOOOOOOOOO      OOOO@@++++++XX++@@oooo      oooooooooo....",
"OOOOOOOOOOOOOOOO      OOOO@@++++++XX++@@oooo      oooooooooo....",
"OOOOOOOOOOOOOOOOOOOOOOOOOO@@++++XXXX++@@oooooooooooooooooooo....",
"OOOOOOOOOOOOOOOOOOOOOOOOOO@@++++XXXX++@@oooooooooooooooooooo....",
"OOOOOOOOOOOOOOOOOOOOOOOOOO@@++++++++++@@oooooooooooooooooooo....",
"OOOOOOOOOOOOOOOOOOOOOOOOOO@@++++++++++@@oooooooooooooooooooo....",
"OOOOOOOOOOOOOOOOOOOOOOOOOOOO@@@@@@@@@@oooooooooooooooooooooo....",
"OOOOOOOOOOOOOOOOOOOOOOOOOOOO@@@@@@@@@@oooooooooooooooooooooo....",
"................................................................",
"................................................................",
"................................................................",
"................................................................"
};
