/* XPM */
static char *result[] = {
/* columns rows colors chars-per-pixel */
"64 64 55 1 ",
"  c black",
". c #4B4C51",
"X c #505256",
"o c #744141",
"O c #66797E",
"+ c red",
"@ c #AC5C56",
"# c #B57A6F",
"$ c #6E8187",
"% c #6D9398",
"& c #71999D",
"* c #739A9D",
"= c #839D9F",
"- c #839E9F",
"; c #87A1A3",
": c #86A1A5",
"> c #8AA4A6",
", c #8BA6A7",
"< c #8BA8AB",
"1 c #92CDCE",
"2 c #98D6D7",
"3 c #99D6D7",
"4 c #9CD6D7",
"5 c #99D6D8",
"6 c #99D7D8",
"7 c #9AD7D8",
"8 c #9CD7D9",
"9 c #9ED8D8",
"0 c #A1D9DA",
"q c #A0DADB",
"w c #A2DADB",
"e c #A3DBDB",
"r c #A3DBDD",
"t c #A5DCDD",
"y c #A7DDDC",
"u c #A6DDDD",
"i c #A4DEDD",
"p c #A7DEDD",
"a c #ACDBD9",
"s c #AADEDE",
"d c #ACDEDE",
"f c #B0E0DE",
"g c #B1E1DF",
"h c #AEE0E0",
"j c #AEE1E3",
"k c #B0E0E0",
"l c #B3E2E1",
"z c #B5E3E2",
"x c #B6E3E2",
"c c #B7E3E2",
"v c #B7E3E3",
"b c #B7E3E4",
"n c #B8E3E2",
"m c #B9E3E2",
"M c #B9E5E4",
/* pixels */
"@@@@@@@@@@@@@@@@@@@@@@@@@@@@oooo############################oooo",
"@@@@@@@@@@@@@@@@@@@@@@@@@@@@oooo############################oooo",
"@@@@@@@@@@@@@@@@@@@@@@@@@@@@oooo############################oooo",
"@@@@@@@@@@@@@@@@@@@@@@@@@@@@oooo############################oooo",
"@@@@@@@@@@@@@@@@@@@@@@@@@@@@oooo############################oooo",
"@@@@@@@@@@@@@@@@@@@@@@@@@@@@oooo############################oooo",
"@@@@@@@@@@@@@@@@@@@@@@@@@@@@oooo############################oooo",
"@@@@@@@@@@@@@@@@@@@@@@@@@@@@oooo############################oooo",
"@@@@@@@@@@@@@@@@@@@@@@@@@@@@oooo############################oooo",
"@@@@@@@@@@@@@@@@@@@@@@@@@@@@oooo############################oooo",
"@@@@@@@@@@@@@@@@@@@@@@@@@@@@oooo############################oooo",
"@@@@@@@@@@@@@@@@@@@@@@@@@@@@oooo############################oooo",
"@@                                                            oo",
"@@                                                            oo",
"@@  OO--========;;;;;;;;;;;;>>,,,,,,,,,,,,,,,,,,,,,,,,,,,,$$  oo",
"@@  OO--========;;;;;;;;;;;;>>,,,,,,,,,,,,,,,,,,,,,,,,,,,,$$  oo",
"@@  **44nnmmmmmmmmmmmmmmmmmm          mm  mmmmmmmmmmnncccc<<  oo",
"@@  **44nnmmmmmmmmmmmmmmmmmm          mm  mmmmmmmmmmnncccc<<  oo",
"@@  &&2233eellxxcccccccc    cccccccc      cccccccccccccccc<<  oo",
"@@  &&2233eellxxcccccccc    cccccccc      cccccccccccccccc<<  oo",
"@@  &&22333388ttddvvcc    cccccccccccc    cccccccccccccccc<<  oo",
"@@  &&22333388ttddvvcc    cccccccccccc    cccccccccccccccc<<  oo",
"@@  &&223333333377wwff    cccccccccccccc  cccccccccccccccc<<  oo",
"@@  &&223333333377wwff    cccccccccccccc  cccccccccccccccc<<  oo",
"@@  &&22333333333333    MMcccccccccccccc  cccccccccccccccc<<  oo",
"@@  &&22333333333333    MMcccccccccccccc  cccccccccccccccc<<  oo",
"@@  &&22333333333333    55qqhhxxcccccccccccccccccccccccccc<<  oo",
"@@  &&22333333333333    55qqhhxxcccccccccccccccccccccccccc<<  oo",
"@@  &&22333333333333    333366uusscccccccccccccccccccccccc<<  oo",
"@@  &&22333333333333    333366uusscccccccccccccccccccccccc<<  oo",
"@@  &&22333333333333    333333336600jjbbbbcccccccccccccccc<<  oo",
"@@  &&22333333333333    333333336600jjbbbbcccccccccccccccc<<  oo",
"oo  &&2233333333333333    33333333333333iicccccccccccccccc<<  oo",
"oo  &&2233333333333333    33333333333333iicccccccccccccccc<<  oo",
"oo  &&2233333333333333    3333333333333333  kkzzvvcccccccc<<  oo",
"oo  &&2233333333333333    3333333333333333  kkzzvvcccccccc<<  oo",
"##  &&223333333333333333      33333333    3333rryyggcccccc<<  oo",
"##  &&223333333333333333      33333333    3333rryyggcccccc<<  oo",
"##  &&2233333333333333333333          33333333333399ppzzcc<<  oo",
"##  &&2233333333333333333333          33333333333399ppzzcc<<  oo",
"##  %%11111111111111111111111111111111111111111111111111aa::  oo",
"##  %%11111111111111111111111111111111111111111111111111aa::  oo",
"##                                                            oo",
"##                                                            oo",
"##..                                                        XXoo",
"##..                                                        XXoo",
"############################        @@@@@@@@@@@@@@@@@@@@@@@@oooo",
"############################        @@@@@@@@@@@@@@@@@@@@@@@@oooo",
"############################  ++++  @@@@@@@@@@@@@@@@@@@@@@@@oooo",
"############################  ++++  @@@@@@@@@@@@@@@@@@@@@@@@oooo",
"############################        @@@@@@@@@@@@@@@@@@@@@@@@oooo",
"############################        @@@@@@@@@@@@@@@@@@@@@@@@oooo",
"######################                    @@@@@@@@@@@@@@@@@@oooo",
"######################                    @@@@@@@@@@@@@@@@@@oooo",
"############################oooo@@@@@@@@@@@@@@@@@@@@@@@@@@@@oooo",
"############################oooo@@@@@@@@@@@@@@@@@@@@@@@@@@@@oooo",
"############################oooo@@@@@@@@@@@@@@@@@@@@@@@@@@@@oooo",
"############################oooo@@@@@@@@@@@@@@@@@@@@@@@@@@@@oooo",
"############################oooo@@@@@@@@@@@@@@@@@@@@@@@@@@@@oooo",
"############################oooo@@@@@@@@@@@@@@@@@@@@@@@@@@@@oooo",
"oooooooooooooooooooooooooooooooooooooooooooooooooooooooooooooooo",
"oooooooooooooooooooooooooooooooooooooooooooooooooooooooooooooooo",
"oooooooooooooooooooooooooooooooooooooooooooooooooooooooooooooooo",
"oooooooooooooooooooooooooooooooooooooooooooooooooooooooooooooooo"
};
