/* XPM */
static char *baecd6dd675c44e89f78817e1428671dTJKmf2ElJOxysteS[] = {
/* columns rows colors chars-per-pixel */
"64 64 3 1 ",
"  c #744141",
". c #AC5C56",
"X c #B57A6F",
/* pixels */
"............................    XXXXXXXXXXXXXXXXXXXXXXXXXXXX    ",
"............................    XXXXXXXXXXXXXXXXXXXXXXXXXXXX    ",
"............................    XXXXXXXXXXXXXXXXXXXXXXXXXXXX    ",
"............................    XXXXXXXXXXXXXXXXXXXXXXXXXXXX    ",
"............................    XXXXXXXXXXXXXXXXXXXXXXXXXXXX    ",
"............................    XXXXXXXXXXXXXXXXXXXXXXXXXXXX    ",
"............................    XXXXXXXXXXXXXXXXXXXXXXXXXXXX    ",
"............................    XXXXXXXXXXXXXXXXXXXXXXXXXXXX    ",
"............................    XXXXXXXXXXXXXXXXXXXXXXXXXXXX    ",
"............................    XXXXXXXXXXXXXXXXXXXXXXXXXXXX    ",
"............................    XXXXXXXXXXXXXXXXXXXXXXXXXXXX    ",
"............................    XXXXXXXXXXXXXXXXXXXXXXXXXXXX    ",
"............................    XXXXXXXXXXXXXXXXXXXXXXXXXXXX    ",
"............................    XXXXXXXXXXXXXXXXXXXXXXXXXXXX    ",
"............................    XXXXXXXXXXXXXXXXXXXXXXXXXXXX    ",
"............................    XXXXXXXXXXXXXXXXXXXXXXXXXXXX    ",
"............................    XXXXXXXXXXXXXXXXXXXXXXXXXXXX    ",
"............................    XXXXXXXXXXXXXXXXXXXXXXXXXXXX    ",
"............................    XXXXXXXXXXXXXXXXXXXXXXXXXXXX    ",
"............................    XXXXXXXXXXXXXXXXXXXXXXXXXXXX    ",
"............................    XXXXXXXXXXXXXXXXXXXXXXXXXXXX    ",
"............................    XXXXXXXXXXXXXXXXXXXXXXXXXXXX    ",
"............................    XXXXXXXXXXXXXXXXXXXXXXXXXXXX    ",
"............................    XXXXXXXXXXXXXXXXXXXXXXXXXXXX    ",
"............................                                    ",
"............................                                    ",
"............................                                    ",
"............................                                    ",
"............................    ............................    ",
"............................    ............................    ",
"............................    ............................    ",
"............................    ............................    ",
"                                ............................    ",
"                                ............................    ",
"                                ............................    ",
"                                ............................    ",
"XXXXXXXXXXXXXXXXXXXXXXXXXXXX    ............................    ",
"XXXXXXXXXXXXXXXXXXXXXXXXXXXX    ............................    ",
"XXXXXXXXXXXXXXXXXXXXXXXXXXXX    ............................    ",
"XXXXXXXXXXXXXXXXXXXXXXXXXXXX    ............................    ",
"XXXXXXXXXXXXXXXXXXXXXXXXXXXX    ............................    ",
"XXXXXXXXXXXXXXXXXXXXXXXXXXXX    ............................    ",
"XXXXXXXXXXXXXXXXXXXXXXXXXXXX    ............................    ",
"XXXXXXXXXXXXXXXXXXXXXXXXXXXX    ............................    ",
"XXXXXXXXXXXXXXXXXXXXXXXXXXXX    ............................    ",
"XXXXXXXXXXXXXXXXXXXXXXXXXXXX    ............................    ",
"XXXXXXXXXXXXXXXXXXXXXXXXXXXX    ............................    ",
"XXXXXXXXXXXXXXXXXXXXXXXXXXXX    ............................    ",
"XXXXXXXXXXXXXXXXXXXXXXXXXXXX    ............................    ",
"XXXXXXXXXXXXXXXXXXXXXXXXXXXX    ............................    ",
"XXXXXXXXXXXXXXXXXXXXXXXXXXXX    ............................    ",
"XXXXXXXXXXXXXXXXXXXXXXXXXXXX    ............................    ",
"XXXXXXXXXXXXXXXXXXXXXXXXXXXX    ............................    ",
"XXXXXXXXXXXXXXXXXXXXXXXXXXXX    ............................    ",
"XXXXXXXXXXXXXXXXXXXXXXXXXXXX    ............................    ",
"XXXXXXXXXXXXXXXXXXXXXXXXXXXX    ............................    ",
"XXXXXXXXXXXXXXXXXXXXXXXXXXXX    ............................    ",
"XXXXXXXXXXXXXXXXXXXXXXXXXXXX    ............................    ",
"XXXXXXXXXXXXXXXXXXXXXXXXXXXX    ............................    ",
"XXXXXXXXXXXXXXXXXXXXXXXXXXXX    ............................    ",
"                                                                ",
"                                                                ",
"                                                                ",
"                                                                "
};
