/* XPM */
static char *_856f7ab98ab4231bfb3594e38ba6416vanKU7hvtR9gCd7i[] = {
/* columns rows colors chars-per-pixel */
"32 32 6 1 ",
"  c None",
". c black",
"X c #161616",
"o c #393939",
"O c gray45",
"+ c white",
/* pixels */
"            ........            ",
"         ...++++++++...         ",
"       ..+++OOOOOOOO+++..       ",
"      .++OOOooooooooOOO++.      ",
"     .++OoooXXXXXXXXoooO++.     ",
"    .+OOooXX........XXooOO+.    ",
"   .+OOoXX............XXoOO+.   ",
"  .++OoXX..............XXoO++.  ",
"  .+OoXX................XXoO+.  ",
" .+OooX..................XooO+. ",
" .+OoX....................XoO+. ",
" .+OoX....................XoO+. ",
".+OoX......................XoO+.",
".+OoX......................XoO+.",
".+OoX......................XoO+.",
".+OoX......................XoO+.",
".+OoX......................XoO+.",
".+OoX......................XoO+.",
".+OoX......................XoO+.",
".+OoX......................XoO+.",
" .+OoX....................XoO+. ",
" .+OoX....................XoO+. ",
" .+OooX..................Xo O+. ",
"  .+OoXX................XXoO+.  ",
"  .++OoXX..............XXoO++.  ",
"   .+OOoXX............XXoOO+.   ",
"    .+OOooXX........XXooOO+.    ",
"     .++OoooXXXXXXXXoo O++.     ",
"      .++OOOooooooooOOO+ .      ",
"       ..+++OOOOOOOO+++..       ",
"         ...++++++++...         ",
"            ........            "
};
