/* XPM */
static char *_96aabd4cad7449ae7ba2aa4f036f3d4R6Ba6AYFZqrXhsiw[] = {
/* columns rows colors chars-per-pixel */
"64 64 8 1 ",
"  c black",
". c #161616",
"X c #393939",
"o c #744141",
"O c gray45",
"+ c #AC5C56",
"@ c #B57A6F",
"# c white",
/* pixels */
"++++++++++++++++++++++++                @@@@@@@@@@@@@@@@@@@@oooo",
"++++++++++++++++++++++++                @@@@@@@@@@@@@@@@@@@@oooo",
"++++++++++++++++++      ################      @@@@@@@@@@@@@@oooo",
"++++++++++++++++++      ################      @@@@@@@@@@@@@@oooo",
"++++++++++++++    ######OOOOOOOOOOOOOOOO######    @@@@@@@@@@oooo",
"++++++++++++++    ######OOOOOOOOOOOOOOOO######    @@@@@@@@@@oooo",
"++++++++++++  ####OOOOOOOOOOOOOOOOOOOOOOOOOOOO####  @@@@@@@@oooo",
"++++++++++++  ####OOOOOOOOOOOOOOOOOOOOOOOOOOOO####  @@@@@@@@oooo",
"++++++++++  ####OOOOOOOOOOOOOOOOOOOOOOOOOOOOOOOO####  @@@@@@oooo",
"++++++++++  ####OOOOOOOOOOOOOOOOOOOOOOOOOOOOOOOO####  @@@@@@oooo",
"++++++++  ##OOOOOOOOOOOOXXXXXXXXXXXXXXXXOOOOOOOOOOOO##  @@@@oooo",
"++++++++  ##OOOOOOOOOOOOXXXXXXXXXXXXXXXXOOOOOOOOOOOO##  @@@@oooo",
"++++++  ##OOOOOOOOOOXXXXXXXXXXXXXXXXXXXXXXXXOOOOOOOOOO##  @@oooo",
"++++++  ##OOOOOOOOOOXXXXXXXXXXXXXXXXXXXXXXXXOOOOOOOOOO##  @@oooo",
"++++  ####OOOOOOOOXXXXXXXXXXXXXXXXXXXXXXXXXXXXOOOOOOOO####  oooo",
"++++  ####OOOOOOOOXXXXXXXXXXXXXXXXXXXXXXXXXXXXOOOOOOOO####  oooo",
"++++  ##OOOOOOOOXXXXXXXXXX............XXXXXXXXXXOOOOOOOO##  oooo",
"++++  ##OOOOOOOOXXXXXXXXXX............XXXXXXXXXXOOOOOOOO##  oooo",
"++  ##OOOOOOOOXXXX..XX....................XX..XXXXOOOOOOOO##  oo",
"++  ##OOOOOOOOXXXX..XX....................XX..XXXXOOOOOOOO##  oo",
"++  ##OOOOOOXXXXXXXX........................XXXXXXXXOOOOOO##  oo",
"++  ##OOOOOOXXXXXXXX........................XXXXXXXXOOOOOO##  oo",
"++  ##OOOOOOXXXXXX..........        ..........XXXXXXOOOOOO##  oo",
"++  ##OOOOOOXXXXXX..........        ..........XXXXXXOOOOOO##  oo",
"  ##OOOOOOXXXXXXXX......                ......XXXXXXXXOOOOOO##  ",
"  ##OOOOOOXXXXXXXX......                ......XXXXXXXXOOOOOO##  ",
"  ##OOOOOOXXXXXX........                ........XXXXXXOOOOOO##  ",
"  ##OOOOOOXXXXXX........                ........XXXXXXOOOOOO##  ",
"  ##OOOOOOXXXXXX......                    ......XXXXXXOOOOOO##  ",
"  ##OOOOOOXXXXXX......                    ......XXXXXXOOOOOO##  ",
"  ##OOOOOOXXXXXX......                    ......XXXXXXOOOOOO##  ",
"  ##OOOOOOXXXXXX......                    ......XXXXXXOOOOOO##  ",
"  ##OOOOOOXXXXXX......                    ......XXXXXXOOOOOO##  ",
"  ##OOOOOOXXXXXX......                    ......XXXXXXOOOOOO##  ",
"  ##OOOOOOXXXXXX......                    ......XXXXXXOOOOOO##  ",
"  ##OOOOOOXXXXXX......                    ......XXXXXXOOOOOO##  ",
"  ##OOOOOOXXXXXX........                ........XXXXXXOOOOOO##  ",
"  ##OOOOOOXXXXXX........                ........XXXXXXOOOOOO##  ",
"  ##OOOOOOXXXXXXXX......                ......XXXXXXXXOOOOOO##  ",
"  ##OOOOOOXXXXXXXX......                ......XXXXXXXXOOOOOO##  ",
"@@  ##OOOOOOXXXXXX..........        ..........XXXXXXOOOOOO##  oo",
"@@  ##OOOOOOXXXXXX..........        ..........XXXXXXOOOOOO##  oo",
"@@  ##OOOOOOXXXXXXXX........................XXXXXXXXOOOOOO##  oo",
"@@  ##OOOOOOXXXXXXXX........................XXXXXXXXOOOOOO##  oo",
"@@  ##OOOOOOOOXXXX..XX....................XX..XXXXOOOOOOOO##  oo",
"@@  ##OOOOOOOOXXXX..XX....................XX..XXXXOOOOOOOO##  oo",
"@@@@  ##OOOOOOOOXXXXXXXXXX............XXXXXXXXXXOOOOOOOO##  oooo",
"@@@@  ##OOOOOOOOXXXXXXXXXX............XXXXXXXXXXOOOOOOOO##  oooo",
"@@@@  ####OOOOOOOOXXXXXXXXXXXXXXXXXXXXXXXXXXXXOOOOOOOO####  oooo",
"@@@@  ####OOOOOOOOXXXXXXXXXXXXXXXXXXXXXXXXXXXXOOOOOOOO####  oooo",
"@@@@@@  ##OOOOOOOOOOXXXXXXXXXXXXXXXXXXXXXXXXOOOOOOOOOO##  ++oooo",
"@@@@@@  ##OOOOOOOOOOXXXXXXXXXXXXXXXXXXXXXXXXOOOOOOOOOO##  ++oooo",
"@@@@@@@@  ##OOOOOOOOOOOOXXXXXXXXXXXXXXXXOOOOOOOOOOOO##  ++++oooo",
"@@@@@@@@  ##OOOOOOOOOOOOXXXXXXXXXXXXXXXXOOOOOOOOOOOO##  ++++oooo",
"@@@@@@@@@@  ####OOOOOOOOOOOOOOOOOOOOOOOOOOOOOOOO####  ++++++oooo",
"@@@@@@@@@@  ####OOOOOOOOOOOOOOOOOOOOOOOOOOOOOOOO####  ++++++oooo",
"@@@@@@@@@@@@  ####OOOOOOOOOOOOOOOOOOOOOOOOOOOO##++  ++++++++oooo",
"@@@@@@@@@@@@  ####OOOOOOOOOOOOOOOOOOOOOOOOOOOO##++  ++++++++oooo",
"@@@@@@@@@@@@@@    ######OOOOOOOOOOOOOOOO######    ++++++++++oooo",
"@@@@@@@@@@@@@@    ######OOOOOOOOOOOOOOOO######    ++++++++++oooo",
"oooooooooooooooooo      ################      oooooooooooooooooo",
"oooooooooooooooooo      ################      oooooooooooooooooo",
"oooooooooooooooooooooooo                oooooooooooooooooooooooo",
"oooooooooooooooooooooooo                oooooooooooooooooooooooo"
};
