/* XPM */
static char *New_Piskel1741058787[] = {
/* columns rows colors chars-per-pixel */
"32 32 2 1 ",
"  c #020202",
". c #4FA4B8",
/* pixels */
"................................",
"................................",
"................................",
".........   ....................",
"........     ...................",
".......      ...................",
"......        ..................",
"......        ..................",
"......        ..................",
"......        ......    ........",
"......        .....      .......",
"......        .....      .......",
"......        ....        ......",
".......      .....        ......",
".......      .....        ......",
"........     .....        ......",
"..................        ......",
"..................        ......",
".........    .....       .......",
"........     .....       .......",
"........     .....      ........",
".........    ......     ........",
"..........   ...................",
"................................",
"..................   ...........",
".................     ..........",
".................     ..........",
".................     ..........",
"..................   ...........",
"................................",
"................................",
"................................"
};
