/* XPM */
static char *_79f3e5934f14295cbad4fa8a769147fWlJaaBIUrlU7zxNK[] = {
/* columns rows colors chars-per-pixel */
"21 31 21 1 ",
"  c None",
". c #3A3A50",
"X c #5A444A",
"o c #46465E",
"O c #6F494D",
"+ c #565972",
"@ c #A2394B",
"# c #AE4A52",
"$ c #8A6552",
"% c #8D7051",
"& c #957350",
"* c #BA8D5E",
"= c #787D93",
"- c #8B8BAB",
"; c #8091A5",
": c #9DA3B7",
"> c #F69784",
", c #E19B9B",
"< c #F6AE9F",
"1 c #FFB893",
"2 c #FFCBB0",
/* pixels */
"                     ",
"                     ",
"     +++oooooooo     ",
"     +++oooooooo     ",
"    +********&&&o    ",
"   +**********&&%o   ",
"   o**********&&%o   ",
"   o**********&&%o   ",
" oo&&********&&&%$oo ",
" ..&&&&&&&&&&&%%%%.. ",
" ..%&&&&%%%%%%%%%%.. ",
" ..%&&&&%%%%%%%%%%.. ",
" ..$%%%%%<<2%%%%%%.. ",
" ..$%%%<<222%$%%%$.. ",
" ..$%<<<2222%<%%%$.. ",
" ..$%<<<2222%<%%%$.. ",
" ..$%22.22222.%%%$.. ",
" ..$<22X22222X%%<$.. ",
"   o<,,,<<<<<,,,<o   ",
" ..Xooooo+++oooooX.. ",
" ..Xooooo+++oooooX.. ",
" ..X@OO@.---.X@@XX.. ",
"o11.O##O.:::.#OO#.11o",
"o11>.OO#.:::.O##.>11o",
"o11>.OO#.:::.O##.>11o",
" oo..ooo.+++.ooo..oo ",
"    .===========.    ",
"    .;;;+ooo+;;;.    ",
"    .;;;+ooo+;;;.    ",
"    .XXX.   .XXX.    ",
"     ...     ...     "
};
