/* XPM */
static char *bafca6134fce4b04a6b0a9ee7ca1ba25v1K9RxfrRczQ9486[] = {
/* columns rows colors chars-per-pixel */
"64 64 143 2 ",
"   c #3A3A50",
".  c #3E3E54",
"X  c #463E4E",
"o  c #4F3A4F",
"O  c #4E3F4F",
"+  c #5C3A4E",
"@  c #673B4E",
"#  c #613F4D",
"$  c #7B3F4A",
"%  c #7C3F4A",
"&  c #7F3E50",
"*  c #47404D",
"=  c #4C434D",
"-  c #4E444C",
";  c #51414C",
":  c #51454C",
">  c #58434A",
",  c #5C464B",
"<  c #56484B",
"1  c #58494A",
"2  c #5D4B49",
"3  c #45455E",
"4  c #4B465B",
"5  c #5B4550",
"6  c #584958",
"7  c #5F4B58",
"8  c #684F47",
"9  c #61434B",
"0  c #63464A",
"q  c #61424C",
"w  c #62454E",
"e  c #66474D",
"r  c #6F414A",
"t  c #64484A",
"y  c #624D48",
"u  c #644F4B",
"i  c #6F4F49",
"p  c #6F494D",
"a  c #744141",
"s  c #75404C",
"d  c #7B404B",
"f  c #7E424C",
"g  c #7C494E",
"h  c #6F5247",
"j  c #6F5446",
"k  c #67514B",
"l  c #69524B",
"z  c #6F554C",
"x  c #73574C",
"c  c #75584E",
"v  c #7A5C4E",
"b  c #7F5E4D",
"n  c #624751",
"m  c #624951",
"M  c #674850",
"N  c #604D5B",
"B  c #704851",
"V  c #7C4951",
"C  c #645051",
"Z  c #725A57",
"A  c #7E5F52",
"S  c #7A6455",
"D  c #7C6554",
"F  c #4A4A62",
"G  c #4B4C64",
"H  c #4C4D66",
"J  c #555A72",
"K  c #735E64",
"L  c #745F64",
"P  c #5D6177",
"I  c #813E4B",
"U  c #833E4C",
"Y  c #91394C",
"T  c #933E4C",
"R  c #943D4C",
"E  c #80424C",
"W  c #84414C",
"Q  c #8D414C",
"!  c #80494E",
"~  c #84494F",
"^  c #8A494F",
"/  c #8C494F",
"(  c #814553",
")  c #834952",
"_  c #854952",
"`  c #884952",
"'  c #8D4951",
"]  c #824B5B",
"[  c #914651",
"{  c #934A50",
"}  c #964A50",
"|  c #994A50",
" . c #994954",
".. c #9C4954",
"X. c #AE4A52",
"o. c #AC5C56",
"O. c #81604E",
"+. c #84614F",
"@. c #836152",
"#. c #866250",
"$. c #876351",
"%. c #8A6552",
"&. c #856A53",
"*. c #8B6A51",
"=. c #8A6D52",
"-. c #8C6E51",
";. c #8D7051",
":. c #937050",
">. c #947250",
",. c #957350",
"<. c #977454",
"1. c #9B7852",
"2. c #9D7953",
"3. c #9D7A59",
"4. c #A07B54",
"5. c #A37F5F",
"6. c #836366",
"7. c #987B65",
"8. c #9A7C65",
"9. c #B57A6F",
"0. c #A98158",
"q. c #AF865A",
"w. c #AA835E",
"e. c #AB845F",
"r. c #B3885B",
"t. c #B68B5F",
"y. c #B88B5D",
"u. c #BA8D5E",
"i. c #AC8661",
"p. c #D1887B",
"a. c #646B81",
"s. c #666F86",
"d. c #696E84",
"f. c #6C778A",
"g. c #6E7B90",
"h. c #798095",
"j. c #7D8B9E",
"k. c #8091A5",
"l. c #CE9984",
"z. c #D79E85",
"x. c #F79C86",
"c. c #F3B08F",
"v. c #FFB893",
/* pixels */
"o.o.o.o.o.o.o.o.o.o.o.o.o.o.o.o.o.o.o.o.o.o.o.o.o.o.o.o.a a a a 9.9.9.9.9.9.9.9.9.9.9.9.9.9.9.9.9.9.9.9.9.9.9.9.9.9.9.9.a a a a ",
"o.o.o.o.o.o.o.o.o.o.o.o.o.o.o.o.o.o.o.o.o.o.o.o.o.o.o.o.a a a a 9.9.9.9.9.9.9.9.9.9.9.9.9.9.9.9.9.9.9.9.9.9.9.9.9.9.9.9.a a a a ",
"o.o.o.o.o.o.o.o.o.o.o.o.o.o.o.o.o.o.o.o.o.o.o.o.o.o.o.o.a a a a 9.9.9.9.9.9.9.9.9.9.9.9.9.9.9.9.9.9.9.9.9.9.9.9.9.9.9.9.a a a a ",
"o.o.o.o.o.o.o.o.o.o.o.o.o.o.o.o.o.o.o.o.o.o.o.o.o.o.o.o.a a a a 9.9.9.9.9.9.9.9.9.9.9.9.9.9.9.9.9.9.9.9.9.9.9.9.9.9.9.9.a a a a ",
"o.o.o.o.o.o.o.o.o.o.o.o.o.o.o.o.o.o.o.o.J J J J J J H H 3 3 3 3 3 3 3 3 3 3 3 3 3 3 3 3 9.9.9.9.9.9.9.9.9.9.9.9.9.9.9.9.a a a a ",
"o.o.o.o.o.o.o.o.o.o.o.o.o.o.o.o.o.o.o.o.J J J J J J H H 3 3 3 3 3 3 3 3 3 3 3 3 3 3 3 3 9.9.9.9.9.9.9.9.9.9.9.9.9.9.9.9.a a a a ",
"o.o.o.o.o.o.o.o.o.o.o.o.o.o.o.o.o.o.o.o.J J J J J J H H 3 3 3 3 3 3 3 3 3 3 3 3 3 3 3 3 9.9.9.9.9.9.9.9.9.9.9.9.9.9.9.9.a a a a ",
"o.o.o.o.o.o.o.o.o.o.o.o.o.o.o.o.o.o.o.o.J J J J J J H H 3 3 3 3 3 3 3 3 3 3 3 3 3 3 3 3 9.9.9.9.9.9.9.9.9.9.9.9.9.9.9.9.a a a a ",
"o.o.o.o.o.o.o.o.o.o.o.o.o.o.o.o.o.o.J J 7.7.i.i.i.i.e.e.w.w.w.w.w.w.w.w.3.3.=.=.=.=.S S 3 3 9.9.9.9.9.9.9.9.9.9.9.9.9.9.a a a a ",
"o.o.o.o.o.o.o.o.o.o.o.o.o.o.o.o.o.o.J J 7.7.i.i.i.i.e.e.w.w.w.w.w.w.w.w.3.3.=.=.=.=.S S 3 3 9.9.9.9.9.9.9.9.9.9.9.9.9.9.a a a a ",
"o.o.o.o.o.o.o.o.o.o.o.o.o.o.o.o.J J 8.8.t.t.u.u.u.u.u.u.u.u.u.u.u.u.u.u.y.y.0.0.>.>.:.:.D D 3 3 9.9.9.9.9.9.9.9.9.9.9.9.a a a a ",
"o.o.o.o.o.o.o.o.o.o.o.o.o.o.o.o.J J 8.8.t.t.u.u.u.u.u.u.u.u.u.u.u.u.u.u.y.y.0.0.>.>.:.:.D D 3 3 9.9.9.9.9.9.9.9.9.9.9.9.a a a a ",
"o.o.o.o.o.o.o.o.o.o.o.o.o.o.o.o.F F 5.5.u.u.u.u.u.u.u.u.u.u.u.u.u.u.u.u.u.u.q.q.>.>.>.>.&.&.3 3 9.9.9.9.9.9.9.9.9.9.9.9.a a a a ",
"o.o.o.o.o.o.o.o.o.o.o.o.o.o.o.o.F F 5.5.u.u.u.u.u.u.u.u.u.u.u.u.u.u.u.u.u.u.q.q.>.>.>.>.&.&.3 3 9.9.9.9.9.9.9.9.9.9.9.9.a a a a ",
"o.o.o.o.o.o.o.o.o.o.o.o.o.o.o.o.3 3 5.5.u.u.u.u.u.u.u.u.u.u.u.u.u.u.u.u.u.u.q.q.>.>.>.>.&.&.3 3 9.9.9.9.9.9.9.9.9.9.9.9.a a a a ",
"o.o.o.o.o.o.o.o.o.o.o.o.o.o.o.o.3 3 5.5.u.u.u.u.u.u.u.u.u.u.u.u.u.u.u.u.u.u.q.q.>.>.>.>.&.&.3 3 9.9.9.9.9.9.9.9.9.9.9.9.a a a a ",
"o.o.o.o.o.o.o.o.o.o.o.o.3 3 3 3 Z Z <.<.r.r.u.u.u.u.u.u.u.u.u.u.u.u.u.u.q.q.1.1.>.>.>.>.-.-.Z Z 3 3 3 3 9.9.9.9.9.9.9.9.a a a a ",
"o.o.o.o.o.o.o.o.o.o.o.o.3 3 3 3 Z Z <.<.r.r.u.u.u.u.u.u.u.u.u.u.u.u.u.u.q.q.1.1.>.>.>.>.-.-.Z Z 3 3 3 3 9.9.9.9.9.9.9.9.a a a a ",
"o.o.o.o.o.o.o.o.o.o.o.o.. . . . A A :.:.2.2.4.4.4.4.4.4.4.4.4.4.4.4.4.4.2.2.>.>.>.>.>.>.-.-.A A . . . . 9.9.9.9.9.9.9.9.a a a a ",
"o.o.o.o.o.o.o.o.o.o.o.o.. . . . A A :.:.2.2.4.4.4.4.4.4.4.4.4.4.4.4.4.4.2.2.>.>.>.>.>.>.-.-.A A . . . . 9.9.9.9.9.9.9.9.a a a a ",
"o.o.o.o.o.o.o.o.o.o.o.o.        A A -.-.>.>.>.>.>.>.>.>.>.>.>.>.>.>.>.>.>.>.:.:.:.:.;.;.-.-.A A         9.9.9.9.9.9.9.9.a a a a ",
"o.o.o.o.o.o.o.o.o.o.o.o.        A A -.-.>.>.>.>.>.>.>.>.>.>.>.>.>.>.>.>.>.>.:.:.:.:.;.;.-.-.A A         9.9.9.9.9.9.9.9.a a a a ",
"o.o.o.o.o.o.o.o.o.o.o.o.        A A -.-.:.:.>.>.>.>.>.>.>.>.>.>.>.>.>.>.>.>.:.:.;.;.;.;.-.-.A A         9.9.9.9.9.9.9.9.a a a a ",
"o.o.o.o.o.o.o.o.o.o.o.o.        A A -.-.:.:.>.>.>.>.>.>.>.>.>.>.>.>.>.>.>.>.:.:.;.;.;.;.-.-.A A         9.9.9.9.9.9.9.9.a a a a ",
"o.o.o.o.o.o.o.o.o.o.o.o.        A A -.-.;.;.:.:.:.:.:.:.;.:.:.:.:.:.:.:.:.:.;.;.;.;.;.;.-.-.A A         a a a a a a a a a a a a ",
"o.o.o.o.o.o.o.o.o.o.o.o.        A A -.-.;.;.:.:.:.:.:.:.:.:.:.:.:.:.:.:.:.:.;.;.;.;.;.;.-.-.A A         a a a a a a a a a a a a ",
"o.o.o.o.o.o.o.o.o.o.o.o.        A A *.*.-.-.;.;.;.;.;.;.;.;.;.;.;.;.;.;.;.;.;.;.;.;.-.-.*.*.A A         a a a a a a a a a a a a ",
"o.o.o.o.o.o.o.o.o.o.o.o.        A A *.*.-.-.;.;.;.;.;.;.;.;.;.;.;.;.;.;.;.;.;.;.;.;.-.-.*.*.A A         a a a a a a a a a a a a ",
"o.o.o.o.o.o.o.o.o.o.o.o.        A A %.%.*.*.*.*.*.*.*.*.*.*.*.*.*.*.*.*.*.*.*.*.*.*.*.*.%.%.A A         o.o.o.o.o.o.o.o.a a a a ",
"o.o.o.o.o.o.o.o.o.o.o.o.        A A %.%.*.*.*.*.*.*.*.*.*.*.*.*.*.*.*.*.*.*.*.*.*.*.*.*.%.%.A A         o.o.o.o.o.o.o.o.a a a a ",
"o.o.o.o.o.o.o.o.o.o.o.o.        A A %.%.%.%.%.%.%.%.%.%.%.%.%.%.%.%.%.%.%.%.%.%.%.%.%.%.%.%.A A         o.o.o.o.o.o.o.o.a a a a ",
"o.o.o.o.o.o.o.o.o.o.o.o.        A A %.%.%.%.%.%.%.%.%.%.%.%.%.%.%.%.%.%.%.%.%.%.%.%.%.%.%.%.A A         o.o.o.o.o.o.o.o.a a a a ",
"a a a a a a a a a a a a         A A %.%.%.%.%.%.%.%.%.%.%.%.%.%.%.%.%.%.%.%.%.%.%.%.%.%.%.%.A A         o.o.o.o.o.o.o.o.a a a a ",
"a a a a a a a a a a a a         A A %.%.%.%.%.%.%.%.%.%.%.%.%.%.%.%.%.%.%.%.%.%.%.%.%.%.%.%.A A         o.o.o.o.o.o.o.o.a a a a ",
"a a a a a a a a a a a a         A A %.%.%.%.%.%.%.%.%.%.%.%.%.%.%.%.%.%.%.%.%.%.%.%.%.%.%.%.A A         o.o.o.o.o.o.o.o.a a a a ",
"a a a a a a a a a a a a         A A %.%.%.%.%.%.%.%.%.%.%.%.%.%.%.%.%.%.%.%.%.%.%.%.%.%.%.%.A A         o.o.o.o.o.o.o.o.a a a a ",
"9.9.9.9.9.9.9.9.9.9.9.9.        C C @.@.O.O.b b #.#.O.O.#.#.%.%.#.#.+.+.#.#.O.O.%.%.#.#.v v C C         o.o.o.o.o.o.o.o.a a a a ",
"9.9.9.9.9.9.9.9.9.9.9.9.        C C @.@.O.O.b b #.#.O.O.#.#.%.%.#.#.+.+.#.#.O.O.%.%.#.#.v v C C         o.o.o.o.o.o.o.o.a a a a ",
"9.9.9.9.9.9.9.9.9.9.9.9.9.9.9.9.O O c c u u 1 1 x x l l z z b b z z l l x x k k b b c c , , + + o.o.o.o.o.o.o.o.o.o.o.o.a a a a ",
"9.9.9.9.9.9.9.9.9.9.9.9.9.9.9.9.O O c c u u 1 1 x x l l z z b b z z l l x x k k b b c c , , + + o.o.o.o.o.o.o.o.o.o.o.o.a a a a ",
"9.9.9.9.9.9.9.9.9.9.9.9.        e e h h * *     2 2 - - 1 1 j j < < : : 1 1 = = j j y y o o Y Y         o.o.o.o.o.o.o.o.a a a a ",
"9.9.9.9.9.9.9.9.9.9.9.9.        e e h h * *     2 2 - - 1 1 j j < < : : 1 1 = = j j y y o o Y Y         o.o.o.o.o.o.o.o.a a a a ",
"9.9.9.9.9.9.9.9.9.9.9.9.        e e i i # # + + t t q q 0 0 8 8 0 0 9 9 0 0 q q 8 8 t t @ @ U U         o.o.o.o.o.o.o.o.a a a a ",
"9.9.9.9.9.9.9.9.9.9.9.9.        e e i i # # + + t t q q 0 0 8 8 0 0 9 9 0 0 q q 8 8 t t @ @ U U         o.o.o.o.o.o.o.o.a a a a ",
"9.9.9.9.9.9.9.9.9.9.9.9.K K L L m m n n W W T T d d I I % % r r % % I I $ $ I I r r s s & & m m L L K K o.o.o.o.o.o.o.o.a a a a ",
"9.9.9.9.9.9.9.9.9.9.9.9.K K L L m m n n W W T T d d I I % % r r % % I I $ $ I I r r s s & & m m L L K K o.o.o.o.o.o.o.o.a a a a ",
"9.9.9.9.9.9.9.9.9.9.3 3 c.c.v.v.6.6.4 4 B B ! ! Q Q f f W W R R E E E E W W f f R R U U 4 4 6.6.v.v.c.c.3 3 o.o.o.o.o.o.a a a a ",
"9.9.9.9.9.9.9.9.9.9.3 3 c.c.v.v.6.6.4 4 B B ! ! Q Q f f W W R R E E E E W W f f R R U U 4 4 6.6.v.v.c.c.3 3 o.o.o.o.o.o.a a a a ",
"9.9.9.9.9.9.9.9.9.9.3 3 c.c.v.v.x.x.N N [ [ X.X.~ ~ } } ^ ^ p p / / } { ~ ~ | | p p w w N N x.x.v.v.c.c.3 3 o.o.o.o.o.o.a a a a ",
"9.9.9.9.9.9.9.9.9.9.3 3 c.c.v.v.x.x.N N [ [ X.X.~ ~ } } ^ ^ p p / / } } ~ ~ | | p p w w N N x.x.v.v.c.c.3 3 o.o.o.o.o.o.a a a a ",
"9.9.9.9.9.9.9.9.9.9.3 3 l.l.z.z.p.p.6 6 ( (  . ._ _ { { / / g g / / { { ^ ^ ' ' M M 5 5 6 6 p.p.z.z.l.l.3 3 o.o.o.o.o.o.a a a a ",
"9.9.9.9.9.9.9.9.9.9.3 3 l.l.z.z.p.p.6 6 ( (  . ._ _ { { / / g g / / { { ^ ^ ' ' M M 5 5 6 6 p.p.z.z.l.l.3 3 o.o.o.o.o.o.a a a a ",
"9.9.9.9.9.9.9.9.9.9.9.9.                F F H H ] ] V V _ _ ....) ) V V ` ` 7 7 H H F F                 o.o.o.o.o.o.o.o.a a a a ",
"9.9.9.9.9.9.9.9.9.9.9.9.                F F H H ] ] V V _ _ ....) ) V V ` ` 7 7 H H F F                 o.o.o.o.o.o.o.o.a a a a ",
"9.9.9.9.9.9.9.9.9.9.9.9.9.9.9.9.9.9.    d.d.h.h.P P G G 3 3 3 3 3 3 3 3 G G P P h.h.d.d.    o.o.o.o.o.o.o.o.o.o.o.o.o.o.a a a a ",
"9.9.9.9.9.9.9.9.9.9.9.9.9.9.9.9.9.9.    d.d.h.h.P P G G 3 3 3 3 3 3 3 3 G G P P h.h.d.d.    o.o.o.o.o.o.o.o.o.o.o.o.o.o.a a a a ",
"9.9.9.9.9.9.9.9.9.9.9.9.9.9.9.9.9.9.    g.g.k.k.k.k.s.s.H H 3 3 3 3 H H s.s.k.k.k.k.g.g.    o.o.o.o.o.o.o.o.o.o.o.o.o.o.a a a a ",
"9.9.9.9.9.9.9.9.9.9.9.9.9.9.9.9.9.9.    g.g.k.k.k.k.s.s.H H 3 3 3 3 H H s.s.k.k.k.k.g.g.    o.o.o.o.o.o.o.o.o.o.o.o.o.o.a a a a ",
"9.9.9.9.9.9.9.9.9.9.9.9.9.9.9.9.9.9.    f.f.j.j.j.j.a.a.H H 3 3 3 3 H H a.a.j.j.j.j.f.f.    o.o.o.o.o.o.o.o.o.o.o.o.o.o.a a a a ",
"9.9.9.9.9.9.9.9.9.9.9.9.9.9.9.9.9.9.    f.f.j.j.j.j.a.a.H H 3 3 3 3 H H a.a.j.j.j.j.f.f.    o.o.o.o.o.o.o.o.o.o.o.o.o.o.a a a a ",
"a a a a a a a a a a a a a a a a a a     ; ; > > > > X X a a a a a a a a X X > > > > ; ;     a a a a a a a a a a a a a a a a a a ",
"a a a a a a a a a a a a a a a a a a     ; ; > > > > X X a a a a a a a a X X > > > > ; ;     a a a a a a a a a a a a a a a a a a ",
"a a a a a a a a a a a a a a a a a a a a             a a a a a a a a a a a a             a a a a a a a a a a a a a a a a a a a a ",
"a a a a a a a a a a a a a a a a a a a a             a a a a a a a a a a a a             a a a a a a a a a a a a a a a a a a a a "
};
