/* XPM */
static char *_f6d02eaa82143f2e24a47da0e430149Lb0PzeAq2g1V6nkL[] = {
/* columns rows colors chars-per-pixel */
"64 64 158 2 ",
"   c #3E3B4F",
".  c #393950",
"X  c #3C3C52",
"o  c #3F3F56",
"O  c #413C4F",
"+  c #4B3F4D",
"@  c #4F3D4E",
"#  c #513B4E",
"$  c #5C3A4E",
"%  c #5D3E4C",
"&  c #533F55",
"*  c #5D3D50",
"=  c #723B4D",
"-  c #753C4D",
";  c #3F4056",
":  c #4F414C",
">  c #58434A",
",  c #59434F",
"<  c #4E4556",
"1  c #414159",
"2  c #45455E",
"3  c #544657",
"4  c #51445C",
"5  c #584258",
"6  c #5F4A5B",
"7  c #68444F",
"8  c #744141",
"9  c #644357",
"0  c #654558",
"q  c #714154",
"w  c #7A4352",
"e  c #7E4451",
"r  c #665252",
"t  c #6B5451",
"y  c #685557",
"u  c #705956",
"i  c #7D5E52",
"p  c #746156",
"a  c #7E6152",
"s  c #7F6054",
"d  c #7F6754",
"f  c #786559",
"g  c #7E6A5C",
"h  c #494B62",
"j  c #4D4E67",
"k  c #4E5068",
"l  c #555771",
"z  c #565972",
"x  c #605667",
"c  c #645A64",
"v  c #735365",
"b  c #785366",
"n  c #755B61",
"m  c #5F6076",
"M  c #766266",
"N  c #606379",
"B  c #61657B",
"V  c #61657C",
"C  c #933E4C",
"Z  c #83424C",
"A  c #874551",
"S  c #89555D",
"D  c #AC5C56",
"F  c #846253",
"G  c #8A6552",
"H  c #836A53",
"J  c #8B6852",
"K  c #8C6B51",
"L  c #886C52",
"P  c #8C6E51",
"I  c #8A6F56",
"U  c #8F7151",
"Y  c #937250",
"T  c #957350",
"R  c #957454",
"E  c #9A7652",
"W  c #9D7853",
"Q  c #9A775C",
"!  c #9D7A59",
"~  c #A07B54",
"^  c #A77F57",
"/  c #956660",
"(  c #93696C",
")  c #986B6F",
"_  c #927866",
"`  c #926F7B",
"'  c #967270",
"]  c #997273",
"[  c #AB6761",
"{  c #A17C60",
"}  c #B57A6F",
"|  c #B17F6E",
" . c #AB8258",
".. c #AE8559",
"X. c #AA835E",
"o. c #AB845F",
"O. c #B88B5D",
"+. c #BA8D5E",
"@. c #A48165",
"#. c #AC8661",
"$. c #AA8064",
"%. c #AC8567",
"&. c #B28A6F",
"*. c #AF8179",
"=. c #AF877C",
"-. c #B98573",
";. c #B28C71",
":. c #B48F71",
">. c #BE8877",
",. c #C88F7F",
"<. c #C49076",
"1. c #C1927D",
"2. c #C3967F",
"3. c #CA947E",
"4. c #C3997A",
"5. c #636C82",
"6. c #656F84",
"7. c #A47A83",
"8. c #7A8397",
"9. c #7D8B9E",
"0. c #9E8380",
"q. c #A08581",
"w. c #A68682",
"e. c #AD8180",
"r. c #AC8185",
"t. c #AF8A86",
"y. c #B68F85",
"u. c #B28D88",
"i. c #B89480",
"p. c #B2928A",
"a. c #B7968D",
"s. c #8091A5",
"d. c #C19B8E",
"f. c #DC9784",
"g. c #D39886",
"h. c #DB9C8C",
"j. c #CE9694",
"k. c #D29C93",
"l. c #DFA48A",
"z. c #D3A88B",
"x. c #DDA98F",
"c. c #DFAB92",
"v. c #DCAF93",
"b. c #D9A99D",
"n. c #D8AF9E",
"m. c #E6A394",
"M. c #F6AE9F",
"N. c #E8B99D",
"B. c #FEB591",
"V. c #FFB893",
"C. c #DBB2A1",
"Z. c #DDB4A3",
"A. c #F9B8A5",
"S. c #FABBA7",
"D. c #FBBEA8",
"F. c #FCC2AB",
"G. c #FDC6AD",
"H. c #FFCBB0",
/* pixels */
"D D D D D D D D D D D D D D D D D D D D D D D D D D D D 8 8 8 8 } } } } } } } } } } } } } } } } } } } } } } } } } } } } 8 8 8 8 ",
"D D D D D D D D D D D D D D D D D D D D D D D D D D D D 8 8 8 8 } } } } } } } } } } } } } } } } } } } } } } } } } } } } 8 8 8 8 ",
"D D D D D D D D D D D D D D D D D D D D D D D D D D D D 8 8 8 8 } } } } } } } } } } } } } } } } } } } } } } } } } } } } 8 8 8 8 ",
"D D D D D D D D D D D D D D D D D D D D D D D D D D D D 8 8 8 8 } } } } } } } } } } } } } } } } } } } } } } } } } } } } 8 8 8 8 ",
"D D D D D D D D D D D D D D D D D D D D D D D D z z z z j j 2 2 2 2 2 2 2 2 2 2 2 2 2 2 } } } } } } } } } } } } } } } } 8 8 8 8 ",
"D D D D D D D D D D D D D D D D D D D D D D D D z z z z j j 2 2 2 2 2 2 2 2 2 2 2 2 2 2 } } } } } } } } } } } } } } } } 8 8 8 8 ",
"D D D D D D D D D D D D D D D D D D D D D D D D z z z z j j 2 2 2 2 2 2 2 2 2 2 2 2 2 2 } } } } } } } } } } } } } } } } 8 8 8 8 ",
"D D D D D D D D D D D D D D D D D D D D D D D D z z z z j j 2 2 2 2 2 2 2 2 2 2 2 2 2 2 } } } } } } } } } } } } } } } } 8 8 8 8 ",
"D D D D D D D D D D D D D D D D D D D D z z z z _ _ #.#.o.o.X.X.X.X.X.X.! ! L L H H p p 2 2 } } } } } } } } } } } } } } 8 8 8 8 ",
"D D D D D D D D D D D D D D D D D D D D z z z z _ _ #.#.o.o.X.X.X.X.X.X.! ! L L H H p p 2 2 } } } } } } } } } } } } } } 8 8 8 8 ",
"D D D D D D D D D D D D D D D D D D z z g g I I R R ....+.+.+.+.+.+.+.+.O.O. . .T T U U p p 2 2 } } } } } } } } } } } } 8 8 8 8 ",
"D D D D D D D D D D D D D D D D D D z z g g I I R R ....+.+.+.+.+.+.+.+.O.O. . .T T U Y p p 2 2 } } } } } } } } } } } } 8 8 8 8 ",
"D D D D D D D D D D D D D D D D 2 2 f f Y Y T T T T E E W W W W  . .+.+.+.+.....T T Y Y d d 2 2 } } } } } } } } } } } } 8 8 8 8 ",
"D D D D D D D D D D D D D D D D 2 2 f f Y Y T T T T E E W W W W  . .+.+.+.+.....T T Y Y d d 2 2 } } } } } } } } } } } } 8 8 8 8 ",
"D D D D D D D D D D D D D D D D 2 2 d d Y Y T T T T T T T T T T ^ ^ +.+.+.+.....T T Y Y d d 2 2 } } } } } } } } } } } } 8 8 8 8 ",
"D D D D D D D D D D D D D D D D 2 2 d d Y Y T T T T T T T T T T ^ ^ +.+.+.+.....T T Y Y d d 2 2 } } } } } } } } } } } } 8 8 8 8 ",
"D D D D D D D D D D D D D D D D 2 2 d d Y Y T T T T T T T T T T E E  . .+.+.....T T Y Y L L p p 2 2 2 2 } } } } } } } } 8 8 8 8 ",
"D D D D D D D D D D D D D D D D 2 2 d d Y Y T T T T T T T T T T E E  . .+.+.....T T Y Y L L p p 2 2 2 2 } } } } } } } } 8 8 8 8 ",
"D D D D D D D D D D D D 2 2 2 2 u u L L Y Y T T T T T T T T T T T T E E ~ ~ E E U U U U P P a a o o o o } } } } } } } } 8 8 8 8 ",
"D D D D D D D D D D D D 2 2 2 2 u u L L Y Y T T T T T T T T T T T T E E ~ ~ E E U U U U P P a a o o o o } } } } } } } } 8 8 8 8 ",
"D D D D D D D D D D D D 2 2 2 2 s s P P U U Y Y U Y Y Y Y Y T T Y Y U Y Y Y P P J J J J J J i i . . . . } } } } } } } } 8 8 8 8 ",
"D D D D D D D D D D D D 2 2 2 2 s s P P U U Y Y U Y Y Y Y Y T T Y Y Y Y Y Y P P J J J J J J i i . . . . } } } } } } } } 8 8 8 8 ",
"D D D D D D D D D D D D 2 2 2 2 s s P P U U U U U U U U Y Y T T Y Y U P U U P P G G G G G G i i . . . . } } } } } } } } 8 8 8 8 ",
"D D D D D D D D D D D D 2 2 2 2 s s P P U U U U U U U U Y Y T T Y Y U P U U P P G G G G G G i i . . . . } } } } } } } } 8 8 8 8 ",
"D D D D D D D D D D D D 2 2 2 2 c c *.*.Q Q U U U U U U U U Y Y U U U U L L J J G G G G G G i i . . . . 8 8 8 8 8 8 8 8 8 8 8 8 ",
"D D D D D D D D D D D D 2 2 2 2 c c *.*.Q Q U U U U U U U U Y Y U U U U P P J J G G G G G G i i . . . . 8 8 8 8 8 8 8 8 8 8 8 8 ",
"D D D D D D D D D D D D D D D D l l j.j.g.g.3.3.{ { L L P P Y Y U U U U P P G G G G G G G G i i . . . . 8 8 8 8 8 8 8 8 8 8 8 8 ",
"D D D D D D D D D D D D D D D D l l j.j.g.g.3.3.{ { L L P P Y Y U U U U P P G G G G G G G G i i . . . . 8 8 8 8 8 8 8 8 8 8 8 8 ",
"D D D D D D D D D D D D D D D D z z b.b.D.D.D.D.&.&.;.;.%.%.T T Y Y P P J J G G G G G G G G i i . . . . D D D D D D D D 8 8 8 8 ",
"D D D D D D D D D D D D D D D D z z b.b.D.D.D.D.&.&.;.;.%.%.T T Y Y P P J J G G G G G G G G i i . . . . D D D D D D D D 8 8 8 8 ",
"D D D D D D D D D D D D D D D D z z Z.Z.H.H.H.H.:.:.z.z.4.4.T T Y Y K K G G G G G G G G G G i i . . . . D D D D D D D D 8 8 8 8 ",
"D D D D D D D D D D D D D D D D z z Z.Z.H.H.H.H.:.:.z.z.4.4.T T Y Y K K G G G G G G G G G G i i . . . . D D D D D D D D 8 8 8 8 ",
"8 8 8 8 8 8 8 8 8 8 8 8 8 8 8 8 k k C.C.a.a.q.q.i.i.N.N.x.x.<.<.$.$.@.@.2.2.1.1.>.>.| | G G i i . . . . D D D D D D D D 8 8 8 8 ",
"8 8 8 8 8 8 8 8 8 8 8 8 8 8 8 8 k k C.C.a.a.q.q.i.i.N.N.x.x.<.<.$.$.@.@.2.2.1.1.>.>.| | G G i i . . . . D D D D D D D D 8 8 8 8 ",
"8 8 8 8 8 8 8 8 8 8 8 8 8 8 8 8 1 1 n.n.M M + + d.d.H.H.F.F.S.S.c.c.v.v.G.G.S.S.M.M.h.h.G G i i . . . . D D D D D D D D 8 8 8 8 ",
"8 8 8 8 8 8 8 8 8 8 8 8 8 8 8 8 1 1 n.n.M M + + d.d.H.H.F.F.S.S.c.c.v.v.G.G.S.S.M.M.h.h.G G i i . . . . D D D D D D D D 8 8 8 8 ",
"} } } } } } } } } } } } } } } } } } 0.0.] ] ( ( k.k.D.D.G.G.H.H.G.G.D.D.S.S.m.m.,.,.-.-.F F y y . . . . D D D D D D D D 8 8 8 8 ",
"} } } } } } } } } } } } } } } } } } 0.0.] ] ( ( k.k.D.D.G.G.H.H.G.G.D.D.S.S.m.m.,.,.-.-.F F y y . . . . D D D D D D D D 8 8 8 8 ",
"} } } } } } } } } } } } } } } } } } } } ` ` 7.7.7.7.r.r.u.u.p.p.t.t.e.e.e.e.' ' t t t t r r 2 2 D D D D D D D D D D D D 8 8 8 8 ",
"} } } } } } } } } } } } } } } } } } } } ` ` 7.7.7.7.r.r.u.u.p.p.t.t.e.e.e.e.' ' t t t t r r 2 2 D D D D D D D D D D D D 8 8 8 8 ",
"} } } } } } } } } } } } } } } } } } } } 2 2 2 2 2 2 2 2 o o . . . . . . . . . . . . . . . . D D D D D D D D D D D D D D 8 8 8 8 ",
"} } } } } } } } } } } } } } } } } } } } 2 2 2 2 2 2 2 2 o o . . . . . . . . . . . . . . . . D D D D D D D D D D D D D D 8 8 8 8 ",
"} } } } } } } } } } } } } } } } } } } } 1 1 1 1 5 5 4 4 & & $ $ # # O O     O O . . . . . . D D D D D D D D D D D D D D 8 8 8 8 ",
"} } } } } } } } } } } } } } } } } } } } 1 1 1 1 5 5 4 4 & & $ $ # # O O     O O . . . . . . D D D D D D D D D D D D D D 8 8 8 8 ",
"} } } } } } } } } } } } } } } } } } } } . . . . - - 9 9 q q C C Z Z , , @ @ % % . . . . D D D D D D D D D D D D D D D D 8 8 8 8 ",
"} } } } } } } } } } } } } } } } } } } } . . . . - - 9 9 q q C C Z Z , , @ @ % % . . . . D D D D D D D D D D D D D D D D 8 8 8 8 ",
"} } } } } } } } } } } } } } } } } } } } . . . . 7 7 6 6 n n / / [ [ S S * * = = . . . . D D D D D D D D D D D D D D D D 8 8 8 8 ",
"} } } } } } } } } } } } } } } } } } } } . . . . 7 7 6 6 n n / / [ [ S S * * = = . . . . D D D D D D D D D D D D D D D D 8 8 8 8 ",
"} } } } } } } } } } } } } } } } } } } } . . . . A A b b y.y.V.V.V.V.=.=.< < : : . . . . D D D D D D D D D D D D D D D D 8 8 8 8 ",
"} } } } } } } } } } } } } } } } } } } } . . . . A A b b y.y.V.V.V.V.=.=.< < : : . . . . D D D D D D D D D D D D D D D D 8 8 8 8 ",
"} } } } } } } } } } } } } } } } } } } } . . . . e e v v y.y.V.V.B.B.*.*.3 3 , , . . . . D D D D D D D D D D D D D D D D 8 8 8 8 ",
"} } } } } } } } } } } } } } } } } } } } . . . . e e v v y.y.V.V.B.B.*.*.3 3 , , . . . . D D D D D D D D D D D D D D D D 8 8 8 8 ",
"} } } } } } } } } } } } } } } } } } } } . . . . , , x x w.w.l.l.f.f.) ) 0 0 w w X X X X D D D D D D D D D D D D D D D D 8 8 8 8 ",
"} } } } } } } } } } } } } } } } } } } } . . . . , , x x w.w.l.l.f.f.) ) 0 0 w w X X X X D D D D D D D D D D D D D D D D 8 8 8 8 ",
"} } } } } } } } } } } } } } } } } } } } } } } } . . B B V V k k k k h h ; ; o o 2 2 2 2 D D D D D D D D D D D D D D D D 8 8 8 8 ",
"} } } } } } } } } } } } } } } } } } } } } } } } . . B B V V k k k k h h ; ; o o 2 2 2 2 D D D D D D D D D D D D D D D D 8 8 8 8 ",
"} } } } } } } } } } } } } } } } } } } } } } } } . . 6.6.s.s.s.s.s.s.9.9.N N . . D D D D D D D D D D D D D D D D D D D D 8 8 8 8 ",
"} } } } } } } } } } } } } } } } } } } } } } } } . . 6.6.s.s.s.s.s.s.9.9.N N . . D D D D D D D D D D D D D D D D D D D D 8 8 8 8 ",
"} } } } } } } } } } } } } } } } } } } } } } } } . . 5.5.9.9.9.9.9.9.8.8.m m . . D D D D D D D D D D D D D D D D D D D D 8 8 8 8 ",
"} } } } } } } } } } } } } } } } } } } } } } } } . . 5.5.9.9.9.9.9.9.8.8.m m . . D D D D D D D D D D D D D D D D D D D D 8 8 8 8 ",
"8 8 8 8 8 8 8 8 8 8 8 8 8 8 8 8 8 8 8 8 8 8 8 8 8 8 . . + + > > > > > > : : . . 8 8 8 8 8 8 8 8 8 8 8 8 8 8 8 8 8 8 8 8 8 8 8 8 ",
"8 8 8 8 8 8 8 8 8 8 8 8 8 8 8 8 8 8 8 8 8 8 8 8 8 8 . . + + > > > > > > : : . . 8 8 8 8 8 8 8 8 8 8 8 8 8 8 8 8 8 8 8 8 8 8 8 8 ",
"8 8 8 8 8 8 8 8 8 8 8 8 8 8 8 8 8 8 8 8 8 8 8 8 8 8 8 8 . . . . . . . . . . 8 8 8 8 8 8 8 8 8 8 8 8 8 8 8 8 8 8 8 8 8 8 8 8 8 8 ",
"8 8 8 8 8 8 8 8 8 8 8 8 8 8 8 8 8 8 8 8 8 8 8 8 8 8 8 8 . . . . . . . . . . 8 8 8 8 8 8 8 8 8 8 8 8 8 8 8 8 8 8 8 8 8 8 8 8 8 8 "
};
