/* XPM */
static char *f4769278fc0d4ad5b25de57ffa7bc902cdjs5UzR1t40NSuS[] = {
/* columns rows colors chars-per-pixel */
"64 64 161 2 ",
"   c #3E3B4F",
".  c #3A3A50",
"X  c #3C3C53",
"o  c #3E3E54",
"O  c #403C4F",
"+  c #443D4E",
"@  c #483F4D",
"#  c #4F3D4E",
"$  c #503C4E",
"%  c #5D3E4C",
"&  c #533F55",
"*  c #5D3D50",
"=  c #723B4D",
"-  c #753C4D",
";  c #3F4056",
":  c #4E404D",
">  c #57424F",
",  c #58434A",
"<  c #5A414D",
"1  c #4E4556",
"2  c #404058",
"3  c #46465E",
"4  c #544657",
"5  c #51445C",
"6  c #584258",
"7  c #5F4A5B",
"8  c #62464C",
"9  c #68444F",
"0  c #744141",
"q  c #73464C",
"w  c #644357",
"e  c #654558",
"r  c #714154",
"t  c #7A4352",
"y  c #7E4451",
"u  c #665252",
"i  c #6B5451",
"p  c #685557",
"a  c #705956",
"s  c #7D5E52",
"d  c #756255",
"f  c #7E6152",
"g  c #7F6054",
"h  c #7F6754",
"j  c #786559",
"k  c #7E6A5C",
"l  c #494B62",
"z  c #4D4E67",
"x  c #4E5068",
"c  c #555771",
"v  c #565972",
"b  c #605667",
"n  c #645A64",
"m  c #735365",
"M  c #785366",
"N  c #755B61",
"B  c #5F6076",
"V  c #766266",
"C  c #606379",
"Z  c #61657B",
"A  c #61657C",
"S  c #82424C",
"D  c #874551",
"F  c #89555D",
"G  c #AC5C56",
"H  c #846253",
"J  c #8A6552",
"K  c #836A53",
"L  c #8B6852",
"P  c #8C6B51",
"I  c #886C52",
"U  c #8D6E51",
"Y  c #8A6F56",
"T  c #8F7051",
"R  c #937250",
"E  c #957350",
"W  c #957454",
"Q  c #9A7753",
"!  c #9D7853",
"~  c #9F7A54",
"^  c #9A775C",
"/  c #9D7A59",
"(  c #A07B54",
")  c #93696C",
"_  c #986B6F",
"`  c #927866",
"'  c #926F7B",
"]  c #967270",
"[  c #997273",
"{  c #AD6761",
"}  c #A17C60",
"|  c #A77F63",
" . c #B57A6F",
".. c #B17F6E",
"X. c #C36763",
"o. c #A88157",
"O. c #A98158",
"+. c #AC8359",
"@. c #AD8459",
"#. c #AA835E",
"$. c #AB845F",
"%. c #B88B5D",
"&. c #BA8D5E",
"*. c #A48165",
"=. c #AC8661",
"-. c #AC8567",
";. c #B28A6F",
":. c #AE837A",
">. c #AF877C",
",. c #B98573",
"<. c #B28C71",
"1. c #B48F71",
"2. c #BE8877",
"3. c #C88F7F",
"4. c #D8897D",
"5. c #C1927D",
"6. c #C3967F",
"7. c #CA947E",
"8. c #C3997A",
"9. c #C1997C",
"0. c #636C82",
"q. c #656F84",
"w. c #A47A83",
"e. c #7A8397",
"r. c #7D8B9E",
"t. c #9E8380",
"y. c #A08581",
"u. c #A68682",
"i. c #AD8180",
"p. c #AC8185",
"a. c #AF8985",
"s. c #B68F85",
"d. c #B28D88",
"f. c #B89480",
"g. c #B7968D",
"h. c #8091A5",
"j. c #C19B8E",
"k. c #DB9683",
"l. c #D39886",
"z. c #DB9C8C",
"x. c #CE9694",
"c. c #D29C93",
"v. c #D3A88B",
"b. c #DDA98F",
"n. c #DCA990",
"m. c #DCAF93",
"M. c #D9A99D",
"N. c #D8AF9E",
"B. c #E6A394",
"V. c #F6AE9F",
"C. c #E8B99D",
"Z. c #FDB190",
"A. c #FEB491",
"S. c #FFB893",
"D. c #DBB2A1",
"F. c #DDB4A3",
"G. c #F9B8A5",
"H. c #FBBFA9",
"J. c #FCC2AB",
"K. c #FDC6AD",
"L. c #FFCBB0",
/* pixels */
"G G G G G G G G G G G G G G G G G G G G G G G G G G G G 0 0 0 0  . . . . . . . . . . . . . . . . . . . . . . . . . . . .0 0 0 0 ",
"G G G G G G G G G G G G G G G G G G G G G G G G G G G G 0 0 0 0  . . . . . . . . . . . . . . . . . . . . . . . . . . . .0 0 0 0 ",
"G G G G G G G G G G G G G G G G G G G G G G G G G G G G 0 0 0 0  . . . . . . . . . . . . . . . . . . . . . . . . . . . .0 0 0 0 ",
"G G G G G G G G G G G G G G G G G G G G G G G G G G G G 0 0 0 0  . . . . . . . . . . . . . . . . . . . . . . . . . . . .0 0 0 0 ",
"G G G G G G G G G G G G G G G G G G G G 3 3 3 3 3 3 3 3 3 3 3 3 3 3 z z v v v v  . . . . . . . . . . . . . . . . . . . .0 0 0 0 ",
"G G G G G G G G G G G G G G G G G G G G 3 3 3 3 3 3 3 3 3 3 3 3 3 3 z z v v v v  . . . . . . . . . . . . . . . . . . . .0 0 0 0 ",
"G G G G G G G G G G G G G G G G G G G G 3 3 3 3 3 3 3 3 3 3 3 3 3 3 z z v v v v  . . . . . . . . . . . . . . . . . . . .0 0 0 0 ",
"G G G G G G G G G G G G G G G G G G G G 3 3 3 3 3 3 3 3 3 3 3 3 3 3 z z v v v v  . . . . . . . . . . . . . . . . . . . .0 0 0 0 ",
"G G G G G G G G G G G G G G G G G G 3 3 d d K K I I / / #.#.#.#.#.#.$.$.=.=.` ` v v v v  . . . . . . . . . . . . . . . .0 0 0 0 ",
"G G G G G G G G G G G G G G G G G G 3 3 d d K K I I / / #.#.#.#.#.#.$.$.=.=.` ` v v v v  . . . . . . . . . . . . . . . .0 0 0 0 ",
"G G G G G G G G G G G G G G G G 3 3 d d T T E E O.O.%.%.&.&.&.&.&.&.&.&.@.@.W W Y Y k k v v  . . . . . . . . . . . . . .0 0 0 0 ",
"G G G G G G G G G G G G G G G G 3 3 d d T T E E O.O.%.%.&.&.&.&.&.&.&.&.@.@.W W Y Y k k v v  . . . . . . . . . . . . . .0 0 0 0 ",
"G G G G G G G G G G G G G G G G 3 3 h h R R E E @.@.&.&.&.&.&.&.+.+.! ! Q Q E E E E R R j j 3 3  . . . . . . . . . . . .0 0 0 0 ",
"G G G G G G G G G G G G G G G G 3 3 h h R R E E @.@.&.&.&.&.&.&.+.+.! ! Q Q E E E E R R j j 3 3  . . . . . . . . . . . .0 0 0 0 ",
"G G G G G G G G G G G G G G G G 3 3 h h R R E E @.@.&.&.&.&.&.&.o.o.E E E E E E E E R R h h 3 3  . . . . . . . . . . . .0 0 0 0 ",
"G G G G G G G G G G G G G G G G 3 3 h h R R E E @.@.&.&.&.&.&.&.o.o.E E E E E E E E R R h h 3 3  . . . . . . . . . . . .0 0 0 0 ",
"G G G G G G G G G G G G 3 3 3 3 d d I I R R E E @.@.&.&.O.O.~ ~ Q Q E E E E E E E E R R h h 3 3  . . . . . . . . . . . .0 0 0 0 ",
"G G G G G G G G G G G G 3 3 3 3 d d I I R R E E @.@.&.&.O.O.~ ~ Q Q E E E E E E E E R R h h 3 3  . . . . . . . . . . . .0 0 0 0 ",
"G G G G G G G G G G G G o o o o f f U U T T T T Q Q ( ( Q Q E E E E E E E E E E E E R R I I a a 3 3 3 3  . . . . . . . .0 0 0 0 ",
"G G G G G G G G G G G G o o o o f f U U T T T T Q Q ( ( Q Q E E E E E E E E E E E E R R I I a a 3 3 3 3  . . . . . . . .0 0 0 0 ",
"G G G G G G G G G G G G . . . . s s L L L L L L U U T T R R R R R R R R T T R R R R T T I I g H 3 3 3 3  . . . . . . . .0 0 0 0 ",
"G G G G G G G G G G G G . . . . s s L L L L L L U U T T R R R R R R R R T R R R R R T T I I g g 3 3 3 3  . . . . . . . .0 0 0 0 ",
"G G G G G G G G G G G G . . . . s s J J J J J J I I T T T T T T R R R R T T T T T T T T I U g g 3 3 3 3  . . . . . . . .0 0 0 0 ",
"G G G G G G G G G G G G . . . . s s J J J J J J I I T T T T T T R R R R T T T T T T T T I U g g 3 3 3 3  . . . . . . . .0 0 0 0 ",
"G G G G G G G G G G G G . . . . s s J J J J J J L L U U T T T T T T T T T T T T T T ^ ^ :.:.n n 3 3 3 3 0 0 0 0 0 0 0 0 0 0 0 0 ",
"G G G G G G G G G G G G . . . . s s J J J J J J L L U U T T T T T T T T T T T T T T ^ ^ :.:.n n 3 3 3 3 0 0 0 0 0 0 0 0 0 0 0 0 ",
"G G G G G G G G G G G G . . . . s s J J J J J J J J U U T T T T T T U U U U } } 7.7.l.l.x.x.c c 0 0 0 0 0 0 0 0 0 0 0 0 0 0 0 0 ",
"G G G G G G G G G G G G . . . . s s J J J J J J J J U U T T T T T T U U U U } } 7.7.l.l.x.x.c c 0 0 0 0 0 0 0 0 0 0 0 0 0 0 0 0 ",
"G G G G G G G G G G G G . . . . s s J J J J J J J J L L I I T T R R -.-.<.<.;.;.H.H.H.H.M.M.v v G G G G G G G G G G G G 0 0 0 0 ",
"G G G G G G G G G G G G . . . . s s J J J J J J J J L L I I T T R R -.-.<.<.;.;.H.H.H.H.M.M.v v G G G G G G G G G G G G 0 0 0 0 ",
"G G G G G G G G G G G G . . . . s s J J J J J J J J J J P P T T R R 8.8.v.v.1.1.L.L.L.L.F.F.v v G G G G G G G G G G G G 0 0 0 0 ",
"G G G G G G G G G G G G . . . . s s J J J J J J J J J J P P T T R R 8.8.v.v.1.1.L.L.L.L.F.F.v v G G G G G G G G G G G G 0 0 0 0 ",
"0 0 0 0 0 0 0 0 0 0 0 0 . . . . s s J J ....2.2.5.5.6.6.*.*.T T | | b.b.C.C.f.f.y.y.g.g.D.D.x x G G G G G G G G G G G G 0 0 0 0 ",
"0 0 0 0 0 0 0 0 0 0 0 0 . . . . s s J J ....2.2.5.5.6.6.*.*.T T | | b.b.C.C.f.f.y.y.g.g.D.D.x x G G G G G G G G G G G G 0 0 0 0 ",
"0 0 0 0 0 0 0 0 0 0 0 0 . . . . s s J J z.z.V.V.G.G.K.K.m.m.9.9.n.n.J.J.L.L.j.j.@ @ V V N.N.2 2 G G G G G G G G G G G G 0 0 0 0 ",
"0 0 0 0 0 0 0 0 0 0 0 0 . . . . s s J J z.z.V.V.G.G.K.K.m.m.9.9.n.n.J.J.L.L.j.j.@ @ V V N.N.2 2 G G G G G G G G G G G G 0 0 0 0 ",
" . . . . . . . . . . . .. . . . p p H H ,.,.3.3.B.B.G.G.H.H.H.H.K.K.K.K.H.H.c.c.) ) [ [ t.t.G G G G G G G G G G G G G G 0 0 0 0 ",
" . . . . . . . . . . . .. . . . p p H H ,.,.3.3.B.B.G.G.H.H.H.H.K.K.K.K.H.H.c.c.) ) [ [ t.t.G G G G G G G G G G G G G G 0 0 0 0 ",
" . . . . . . . . . . . . . . . .3 3 u u i i i i ] ] i.i.i.i.i.i.a.a.d.d.p.p.w.w.w.w.' ' G G G G G G G G G G G G G G G G 0 0 0 0 ",
" . . . . . . . . . . . . . . . .3 3 u u i i i i ] ] i.i.i.i.i.i.a.a.d.d.p.p.w.w.w.w.' ' G G G G G G G G G G G G G G G G 0 0 0 0 ",
" . . . . . . . . . . . . . . . . . .. . . . . . . . . . . . . . . . o o 3 3 3 3 3 3 3 3 G G G G G G G G G G G G G G G G 0 0 0 0 ",
" . . . . . . . . . . . . . . . . . .. . . . . . . . . . . . . . . . o o 3 3 3 3 3 3 3 3 G G G G G G G G G G G G G G G G 0 0 0 0 ",
" . . . . . . . . . . . . . . . . . .. . . . . . O O     O O + + $ $ & & 5 5 6 6 2 2 2 2 G G G G G G G G G G G G G G G G 0 0 0 0 ",
" . . . . . . . . . . . . . . . . . .. . . . . . O O     O O + + $ $ & & 5 5 6 6 2 2 2 2 G G G G G G G G G G G G G G G G 0 0 0 0 ",
" . . . . . . . . . . . . . . . . . . . .. . . . % % # # < < q q S S r r w w - - . . . . G G G G G G G G G G G G G G G G 0 0 0 0 ",
" . . . . . . . . . . . . . . . . . . . .. . . . % % # # < < q q S S r r w w - - . . . . G G G G G G G G G G G G G G G G 0 0 0 0 ",
" . . . . . . . . . . . . . . . . . . . .. . . . = = * * F F X.X.{ { N N 7 7 9 9 . . . . G G G G G G G G G G G G G G G G 0 0 0 0 ",
" . . . . . . . . . . . . . . . . . . . .. . . . = = * * F F X.X.{ { N N 7 7 9 9 . . . . G G G G G G G G G G G G G G G G 0 0 0 0 ",
" . . . . . . . . . . . . . . . . . . . .. . . . : : 1 1 >.>.S.S.S.S.s.s.M M D D . . . . G G G G G G G G G G G G G G G G 0 0 0 0 ",
" . . . . . . . . . . . . . . . . . . . .. . . . : : 1 1 >.>.S.S.S.S.s.s.M M D D . . . . G G G G G G G G G G G G G G G G 0 0 0 0 ",
" . . . . . . . . . . . . . . . . . . . .. . . . < < 4 4 :.:.Z.Z.A.A.s.s.m m y y . . . . G G G G G G G G G G G G G G G G 0 0 0 0 ",
" . . . . . . . . . . . . . . . . . . . .. . . . < < 4 4 :.:.Z.Z.A.A.s.s.m m y y . . . . G G G G G G G G G G G G G G G G 0 0 0 0 ",
" . . . . . . . . . . . . . . . . . . . .X X X X t t e e _ _ 4.4.k.k.u.u.b b < < . . . . G G G G G G G G G G G G G G G G 0 0 0 0 ",
" . . . . . . . . . . . . . . . . . . . .X X X X t t e e _ _ 4.4.k.k.u.u.b b < < . . . . G G G G G G G G G G G G G G G G 0 0 0 0 ",
" . . . . . . . . . . . . . . . . . . . .3 3 3 3 o o ; ; l l x x x x A A Z Z . . G G G G G G G G G G G G G G G G G G G G 0 0 0 0 ",
" . . . . . . . . . . . . . . . . . . . .3 3 3 3 o o ; ; l l x x x x A A Z Z . . G G G G G G G G G G G G G G G G G G G G 0 0 0 0 ",
" . . . . . . . . . . . . . . . . . . . . . . . .. . C C r.r.h.h.h.h.h.h.q.q.. . G G G G G G G G G G G G G G G G G G G G 0 0 0 0 ",
" . . . . . . . . . . . . . . . . . . . . . . . .. . C C r.r.h.h.h.h.h.h.q.q.. . G G G G G G G G G G G G G G G G G G G G 0 0 0 0 ",
" . . . . . . . . . . . . . . . . . . . . . . . .. . B B e.e.r.r.r.r.r.r.0.0.. . G G G G G G G G G G G G G G G G G G G G 0 0 0 0 ",
" . . . . . . . . . . . . . . . . . . . . . . . .. . B B e.e.r.r.r.r.r.r.0.0.. . G G G G G G G G G G G G G G G G G G G G 0 0 0 0 ",
"0 0 0 0 0 0 0 0 0 0 0 0 0 0 0 0 0 0 0 0 0 0 0 0 . . : : , , , , 8 8 > > . . 0 0 0 0 0 0 0 0 0 0 0 0 0 0 0 0 0 0 0 0 0 0 0 0 0 0 ",
"0 0 0 0 0 0 0 0 0 0 0 0 0 0 0 0 0 0 0 0 0 0 0 0 . . : : , , , , 8 8 > > . . 0 0 0 0 0 0 0 0 0 0 0 0 0 0 0 0 0 0 0 0 0 0 0 0 0 0 ",
"0 0 0 0 0 0 0 0 0 0 0 0 0 0 0 0 0 0 0 0 0 0 0 0 0 0 . . . . . . . . . . 0 0 0 0 0 0 0 0 0 0 0 0 0 0 0 0 0 0 0 0 0 0 0 0 0 0 0 0 ",
"0 0 0 0 0 0 0 0 0 0 0 0 0 0 0 0 0 0 0 0 0 0 0 0 0 0 . . . . . . . . . . 0 0 0 0 0 0 0 0 0 0 0 0 0 0 0 0 0 0 0 0 0 0 0 0 0 0 0 0 "
};
