/* XPM */
static char *_3ab978201ad49088ea03826c95edf2eevMWJW8MwLenfwzE[] = {
/* columns rows colors chars-per-pixel */
"64 64 168 2 ",
"   c #3A3A50",
".  c #3C3C52",
"X  c #3E3E54",
"o  c #463E4E",
"O  c #503F4F",
"+  c #5C3B4E",
"@  c #4E404F",
"#  c #55424B",
"$  c #51414C",
"%  c #55404F",
"&  c #58434A",
"*  c #4B4050",
"=  c #4D4555",
"-  c #464359",
";  c #45455E",
":  c #4F4259",
">  c #4A465A",
",  c #564650",
"<  c #5F4052",
"1  c #5B4550",
"2  c #534758",
"3  c #554458",
"4  c #5E4358",
"5  c #584658",
"6  c #5E4458",
"7  c #584958",
"8  c #62454E",
"9  c #6C454C",
"0  c #604F4F",
"q  c #6F494D",
"w  c #744141",
"e  c #7E434C",
"r  c #604050",
"t  c #674051",
"y  c #624255",
"u  c #634851",
"i  c #674850",
"p  c #644258",
"a  c #604D5B",
"s  c #784952",
"d  c #685557",
"f  c #725A57",
"g  c #7D5E52",
"h  c #766255",
"j  c #7E6251",
"k  c #7F6552",
"l  c #796355",
"z  c #7A6455",
"x  c #7F6754",
"c  c #4A4A62",
"v  c #4C4D66",
"b  c #4F5169",
"n  c #52546B",
"m  c #555A72",
"M  c #5C5F78",
"N  c #735E64",
"B  c #745F64",
"V  c #853E4C",
"C  c #933E4C",
"Z  c #86464E",
"A  c #8B404C",
"S  c #8D424D",
"D  c #82494E",
"F  c #84484F",
"G  c #8A494F",
"H  c #814553",
"J  c #884953",
"K  c #8E4950",
"L  c #884854",
"P  c #914651",
"I  c #934A50",
"U  c #994A50",
"Y  c #9D4A51",
"T  c #994954",
"R  c #AE4A52",
"E  c #AC5C56",
"W  c #806751",
"Q  c #826851",
"!  c #876A51",
"~  c #8C6E51",
"^  c #8D7051",
"/  c #937250",
"(  c #957350",
")  c #987654",
"_  c #9B7852",
"`  c #9D7953",
"'  c #99775A",
"]  c #9D7A59",
"[  c #A07B54",
"{  c #A37F5F",
"}  c #836366",
"|  c #876E6F",
" . c #987B65",
".. c #9A7C65",
"X. c #96746B",
"o. c #9D716E",
"O. c #9D787C",
"+. c #A37B62",
"@. c #B57A6F",
"#. c #A98158",
"$. c #AF865A",
"%. c #AA835E",
"&. c #AB845F",
"*. c #B3885B",
"=. c #B68B5F",
"-. c #B88B5D",
";. c #BA8D5E",
":. c #AC8661",
">. c #B2836D",
",. c #B1856C",
"<. c #B5886F",
"1. c #B08270",
"2. c #B48F72",
"3. c #B88971",
"4. c #B48D7D",
"5. c #C28D7C",
"6. c #D1897C",
"7. c #C6927C",
"8. c #CA947E",
"9. c #646B81",
"0. c #676985",
"q. c #666F86",
"w. c #6A6D82",
"e. c #696E84",
"r. c #6C778A",
"t. c #72758A",
"y. c #71758C",
"u. c #6E7B90",
"i. c #757B91",
"p. c #A47A83",
"a. c #A87D84",
"s. c #798095",
"d. c #7D8B9E",
"f. c #AC8185",
"g. c #B38380",
"h. c #B58A8A",
"j. c #B78D8D",
"k. c #BB8E88",
"l. c #B8958A",
"z. c #8091A5",
"x. c #8F94A9",
"c. c #9092AF",
"v. c #9DA3B7",
"b. c #CD9680",
"n. c #D29984",
"m. c #D09C86",
"M. c #DC9E8B",
"N. c #D39E91",
"B. c #DA9C90",
"V. c #F79C86",
"C. c #CEA387",
"Z. c #D9A188",
"A. c #DFA992",
"S. c #D8AA9B",
"D. c #F3B08F",
"F. c #E6A593",
"G. c #E6AC96",
"H. c #F6AE9F",
"J. c #E6B79B",
"K. c #FFB893",
"L. c #EEBBA1",
"P. c #F2B7A7",
"I. c #F9B8A5",
"U. c #FABCA7",
"Y. c #FBBFA9",
"T. c #FCC0A9",
"R. c #FDC5AD",
"E. c #FFCBB0",
/* pixels */
"E E E E E E E E E E E E E E E E E E E E E E E E E E E E w w w w @.@.@.@.@.@.@.@.@.@.@.@.@.@.@.@.@.@.@.@.@.@.@.@.@.@.@.@.w w w w ",
"E E E E E E E E E E E E E E E E E E E E E E E E E E E E w w w w @.@.@.@.@.@.@.@.@.@.@.@.@.@.@.@.@.@.@.@.@.@.@.@.@.@.@.@.w w w w ",
"E E E E E E E E E E E E E E E E E E E E E E E E E E E E w w w w @.@.@.@.@.@.@.@.@.@.@.@.@.@.@.@.@.@.@.@.@.@.@.@.@.@.@.@.w w w w ",
"E E E E E E E E E E E E E E E E E E E E E E E E E E E E w w w w @.@.@.@.@.@.@.@.@.@.@.@.@.@.@.@.@.@.@.@.@.@.@.@.@.@.@.@.w w w w ",
"E E E E E E E E E E E E E E E E E E E E m m m m m m v v ; ; ; ; ; ; ; ; ; ; ; ; ; ; ; ; @.@.@.@.@.@.@.@.@.@.@.@.@.@.@.@.w w w w ",
"E E E E E E E E E E E E E E E E E E E E m m m m m m v v ; ; ; ; ; ; ; ; ; ; ; ; ; ; ; ; @.@.@.@.@.@.@.@.@.@.@.@.@.@.@.@.w w w w ",
"E E E E E E E E E E E E E E E E E E E E m m m m m m v v ; ; ; ; ; ; ; ; ; ; ; ; ; ; ; ; @.@.@.@.@.@.@.@.@.@.@.@.@.@.@.@.w w w w ",
"E E E E E E E E E E E E E E E E E E E E m m m m m m v v ; ; ; ; ; ; ; ; ; ; ; ; ; ; ; ; @.@.@.@.@.@.@.@.@.@.@.@.@.@.@.@.w w w w ",
"E E E E E E E E E E E E E E E E E E m m  . .:.:.:.:.&.&.%.%.%.%.%.%.%.%.] ] ~ ~ ~ ~ z z ; ; @.@.@.@.@.@.@.@.@.@.@.@.@.@.w w w w ",
"E E E E E E E E E E E E E E E E E E m m  . .:.:.:.:.&.&.%.%.%.%.%.%.%.%.] ] ~ ~ ~ ~ z z ; ; @.@.@.@.@.@.@.@.@.@.@.@.@.@.w w w w ",
"E E E E E E E E E E E E E E E E m m ....=.=.;.;.;.;.;.;.;.;.;.;.;.;.;.;.-.-.#.#.( ( / / h h ; ; @.@.@.@.@.@.@.@.@.@.@.@.w w w w ",
"E E E E E E E E E E E E E E E E m m ....=.=.;.;.;.;.;.;.;.;.;.;.;.;.;.;.-.-.#.#.( ( / / h h ; ; @.@.@.@.@.@.@.@.@.@.@.@.w w w w ",
"E E E E E E E E E E E E E E E E c c { { ;.;.;.;.;.;.;.;.;.;.;.;.;.;.;.;.;.;.$.$.( ( / / x x ; ; @.@.@.@.@.@.@.@.@.@.@.@.w w w w ",
"E E E E E E E E E E E E E E E E c c { { ;.;.;.;.;.;.;.;.;.;.;.;.;.;.;.;.;.;.$.$.( ( / / x x ; ; @.@.@.@.@.@.@.@.@.@.@.@.w w w w ",
"E E E E E E E E E E E E E E E E ; ; { { ;.;.;.;.;.;.;.;.;.;.;.;.;.;.;.;.;.;.$.$.( ( / / x x ; ; @.@.@.@.@.@.@.@.@.@.@.@.w w w w ",
"E E E E E E E E E E E E E E E E ; ; { { ;.;.;.;.;.;.;.;.;.;.;.;.;.;.;.;.;.;.$.$.( ( / / x x ; ; @.@.@.@.@.@.@.@.@.@.@.@.w w w w ",
"E E E E E E E E E E E E ; ; ; ; l l ) ) *.*.;.;.;.;.;.;.;.;.;.;.;.;.;.;.$.$._ _ ( ( / / ~ ~ f f ; ; ; ; @.@.@.@.@.@.@.@.w w w w ",
"E E E E E E E E E E E E ; ; ; ; l l ) ) *.*.;.;.;.;.;.;.;.;.;.;.;.;.;.;.$.$._ _ ( ( / / ~ ~ f f ; ; ; ; @.@.@.@.@.@.@.@.w w w w ",
"E E E E E E E E E E E E X X X X ! ! ( ( ` ` [ [ [ [ [ [ [ [ [ [ [ ` [ [ ` ` / / ^ ^ ^ ^ ~ ~ k k X X X X @.@.@.@.@.@.@.@.w w w w ",
"E E E E E E E E E E E E X X X X ! ! ( ( ` ` [ [ [ [ [ [ [ [ [ [ [ [ [ [ ` ` / / ^ ^ ^ ^ ~ ~ k k X X X X @.@.@.@.@.@.@.@.w w w w ",
"E E E E E E E E E E E E         Q Q ( ( ( ( ( ( ( ( / / / / / / / / / / / / ^ ^ ^ ^ ^ ^ ^ ^ W W         @.@.@.@.@.@.@.@.w w w w ",
"E E E E E E E E E E E E         Q Q ( ( ( ( ( ( ( ( / / / / / / / ^ / / / / ^ ^ ^ ^ ^ ^ ^ ^ W W         @.@.@.@.@.@.@.@.w w w w ",
"E E E E E E E E E E E E         W W / / ( ( ( ( ( ( ^ ^ ^ ^ ^ ^ ^ ^ ^ ^ ^ ^ ^ ^ ^ ^ ^ ^ ^ ^ W W         @.@.@.@.@.@.@.@.w w w w ",
"E E E E E E E E E E E E         W W / / ( ( ( ( ( ( ^ ^ ^ ^ ^ ^ ^ ^ ^ ^ ^ ^ ^ ^ ^ ^ ^ ^ ^ ^ W W         @.@.@.@.@.@.@.@.w w w w ",
"E E E E E E E E E E E E         j j ^ ^ / / / / / / ^ ^ ,.,.b.b.m.m.2.2.^ ^ ^ ^ ^ ^ ^ ^ ^ ^ W W         w w w w w w w w w w w w ",
"E E E E E E E E E E E E         j j ^ ^ / / / / / / ^ ^ ,.,.b.b.m.m.2.2.^ ^ ^ ^ ^ ^ ^ ^ ^ ^ W W         w w w w w w w w w w w w ",
"E E E E E E E E E E E E         g g ~ ~ ^ ^ ^ ^ <.<.8.8.G.G.Y.Y.R.R.C.C.~ ~ ~ ~ ^ ^ ^ ^ ~ ~ j j         w w w w w w w w w w w w ",
"E E E E E E E E E E E E         g g ~ ~ ^ ^ ^ ^ <.<.8.8.G.G.Y.Y.R.R.C.C.~ ~ ~ ~ ^ ^ ^ ^ ~ ~ j j         w w w w w w w w w w w w ",
"E E E E E E E E E E E E         g g ~ ~ 3.3.7.7.F.F.I.I.R.R.E.E.E.E.C.C.+.+.>.>.^ ^ ^ ^ ~ ~ g g         E E E E E E E E w w w w ",
"E E E E E E E E E E E E         g g ~ ~ 3.3.7.7.F.F.I.I.R.R.E.E.E.E.C.C.+.+.>.>.^ ^ ^ ^ ~ ~ g g         E E E E E E E E w w w w ",
"E E E E E E E E E E E E         g g ~ ~ M.M.H.H.H.H.T.T.E.E.E.E.E.E.C.C.<.<.n.n.^ ^ ^ ^ ~ ~ g g         E E E E E E E E w w w w ",
"E E E E E E E E E E E E         g g ~ ~ M.M.H.H.H.H.T.T.E.E.E.E.E.E.C.C.<.<.n.n.^ ^ ^ ^ ~ ~ g g         E E E E E E E E w w w w ",
"w w w w w w w w w w w w         g g ~ ~ A.A.U.U.k.k.S.S.E.E.E.E.E.E.J.J.4.4.X.X.^ ^ ^ ^ ~ ~ g g         E E E E E E E E w w w w ",
"w w w w w w w w w w w w         g g ~ ~ A.A.U.U.k.k.S.S.E.E.E.E.E.E.J.J.4.4.X.X.^ ^ ^ ^ ~ ~ g g         E E E E E E E E w w w w ",
"w w w w w w w w w w w w         g g ,.,.L.L.E.E.| | l.l.E.E.E.E.E.E.E.E.l.l.0 0 ^ ^ ' ' ,.,.g g         E E E E E E E E w w w w ",
"w w w w w w w w w w w w         g g ,.,.L.L.E.E.| | l.l.E.E.E.E.E.E.E.E.l.l.0 0 ^ ^ ' ' ,.,.g g         E E E E E E E E w w w w ",
"@.@.@.@.@.@.@.@.@.@.@.@.        d d B.B.P.P.P.P.g.g.N.N.Y.Y.Y.Y.Y.Y.Y.Y.N.N.o.o.1.1.5.5.B.B.d d         E E E E E E E E w w w w ",
"@.@.@.@.@.@.@.@.@.@.@.@.        d d B.B.P.P.P.P.g.g.N.N.Y.Y.Y.Y.Y.Y.Y.Y.N.N.o.o.1.1.5.5.B.B.d d         E E E E E E E E w w w w ",
"@.@.@.@.@.@.@.@.@.@.@.@.@.@.@.@.= = O.O.a.a.p.p.p.p.f.f.h.h.j.j.j.j.h.h.f.f.p.p.p.p.a.a.O.O.= = E E E E E E E E E E E E w w w w ",
"@.@.@.@.@.@.@.@.@.@.@.@.@.@.@.@.= = O.O.a.a.p.p.p.p.f.f.h.h.j.j.j.j.h.h.f.f.p.p.p.p.a.a.O.O.= = E E E E E E E E E E E E w w w w ",
"@.@.@.@.@.@.@.@.@.@.@.@.        # # > > ; ; ; ; ; ; ; ; b b m m m m b b ; ; ; ; ; ; ; ; > > # #         E E E E E E E E w w w w ",
"@.@.@.@.@.@.@.@.@.@.@.@.        # # > > ; ; ; ; ; ; ; ; b b m m m m b b ; ; ; ; ; ; ; ; > > # #         E E E E E E E E w w w w ",
"@.@.@.@.@.@.@.@.@.@.@.@.        # # y y 5 5 2 2 6 6 : : m m 0.0.0.0.m m - - 3 3 p p 4 4 = = # #         E E E E E E E E w w w w ",
"@.@.@.@.@.@.@.@.@.@.@.@.        # # y y 5 5 2 2 6 6 : : m m 0.0.0.0.m m - - 3 3 p p 4 4 = = # #         E E E E E E E E w w w w ",
"@.@.@.@.@.@.@.@.@.@.@.@.N N B B , , V V Z Z D D S S + + e.e.c.c.c.c.e.e.O O e e C C A A 9 9 , , B B N N E E E E E E E E w w w w ",
"@.@.@.@.@.@.@.@.@.@.@.@.N N B B , , V V Z Z D D S S + + e.e.c.c.c.c.e.e.O O e e C C A A 9 9 , , B B N N E E E E E E E E w w w w ",
"@.@.@.@.@.@.@.@.@.@.; ; D.D.K.K.} } u u K K Y Y G G % % t.t.v.v.v.v.t.t.r r I I D D F F L L } } K.K.D.D.; ; E E E E E E w w w w ",
"@.@.@.@.@.@.@.@.@.@.; ; D.D.K.K.} } u u K K Y Y G G % % t.t.v.v.v.v.t.t.r r I I D D F F L L } } K.K.D.D.; ; E E E E E E w w w w ",
"@.@.@.@.@.@.@.@.@.@.; ; D.D.K.K.V.V.a a 8 8 q q U U t t t.t.v.v.v.v.t.t.@ @ F F R R P P a a V.V.K.K.D.D.; ; E E E E E E w w w w ",
"@.@.@.@.@.@.@.@.@.@.; ; D.D.K.K.V.V.a a 8 8 q q U U t t t.t.v.v.v.v.t.t.@ @ F F R R P P a a V.V.K.K.D.D.; ; E E E E E E w w w w ",
"@.@.@.@.@.@.@.@.@.@.; ; m.m.Z.Z.6.6.7 7 1 1 i i J J < < w.w.x.x.x.x.w.w.* * s s T T H H 7 7 6.6.Z.Z.m.m.; ; E E E E E E w w w w ",
"@.@.@.@.@.@.@.@.@.@.; ; m.m.Z.Z.6.6.7 7 1 1 i i J J < < w.w.x.x.x.x.w.w.* * s s T T H H 7 7 6.6.Z.Z.m.m.; ; E E E E E E w w w w ",
"@.@.@.@.@.@.@.@.@.@.@.@.; ; ; ; . .     c c v v v v c c n n M M M M n n c c v v v v c c     . . ; ; ; ; E E E E E E E E w w w w ",
"@.@.@.@.@.@.@.@.@.@.@.@.; ; ; ; . .     c c v v v v c c n n M M M M n n c c v v v v c c     . . ; ; ; ; E E E E E E E E w w w w ",
"@.@.@.@.@.@.@.@.@.@.@.@.@.@.@.@.@.@.    e.e.s.s.s.s.i.i.y.y.y.y.y.y.y.y.i.i.s.s.s.s.e.e.    E E E E E E E E E E E E E E w w w w ",
"@.@.@.@.@.@.@.@.@.@.@.@.@.@.@.@.@.@.    e.e.s.s.s.s.i.i.y.y.y.y.y.y.y.y.i.i.s.s.s.s.e.e.    E E E E E E E E E E E E E E w w w w ",
"@.@.@.@.@.@.@.@.@.@.@.@.@.@.@.@.@.@.    u.u.z.z.z.z.q.q.v v ; ; ; ; v v q.q.z.z.z.z.u.u.    E E E E E E E E E E E E E E w w w w ",
"@.@.@.@.@.@.@.@.@.@.@.@.@.@.@.@.@.@.    u.u.z.z.z.z.q.q.v v ; ; ; ; v v q.q.z.z.z.z.u.u.    E E E E E E E E E E E E E E w w w w ",
"@.@.@.@.@.@.@.@.@.@.@.@.@.@.@.@.@.@.    r.r.d.d.d.d.9.9.v v ; ; ; ; v v 9.9.d.d.d.d.r.r.    E E E E E E E E E E E E E E w w w w ",
"@.@.@.@.@.@.@.@.@.@.@.@.@.@.@.@.@.@.    r.r.d.d.d.d.9.9.v v ; ; ; ; v v 9.9.d.d.d.d.r.r.    E E E E E E E E E E E E E E w w w w ",
"w w w w w w w w w w w w w w w w w w     $ $ & & & & o o w w w w w w w w o o & & & & $ $     w w w w w w w w w w w w w w w w w w ",
"w w w w w w w w w w w w w w w w w w     $ $ & & & & o o w w w w w w w w o o & & & & $ $     w w w w w w w w w w w w w w w w w w ",
"w w w w w w w w w w w w w w w w w w w w             w w w w w w w w w w w w             w w w w w w w w w w w w w w w w w w w w ",
"w w w w w w w w w w w w w w w w w w w w             w w w w w w w w w w w w             w w w w w w w w w w w w w w w w w w w w "
};
