/* XPM */
static char *_f62633b7592421d861e06a5dff0e2fdDorcBzom2rVFKaJg[] = {
/* columns rows colors chars-per-pixel */
"32 31 212 2 ",
"   c None",
".  c #141107",
"X  c #1A170A",
"o  c #220F09",
"O  c #221E10",
"+  c #2E2914",
"@  c #3B341A",
"#  c #750805",
"$  c #443C1E",
"%  c #443D1F",
"&  c #463D1E",
"*  c #4D4629",
"=  c #59462C",
"-  c #595029",
";  c #4C4735",
":  c #5E4C36",
">  c #534D3C",
",  c #5F543C",
"<  c #60552A",
"1  c #65592A",
"2  c #6D612D",
"3  c #7C6A27",
"4  c #6A603A",
"5  c #6C623C",
"6  c #6E633C",
"7  c #6F653E",
"8  c #796A33",
"9  c #71673F",
"0  c #6C6548",
"q  c #6E6748",
"w  c #736940",
"e  c #756B41",
"r  c #746B46",
"t  c #746C4C",
"y  c #7B7147",
"u  c #716B53",
"i  c #7B7251",
"p  c #7C7455",
"a  c #B90000",
"s  c #BB0000",
"d  c #BC0000",
"f  c #BE0000",
"g  c #BD0201",
"h  c #BA3F34",
"j  c #CE0000",
"k  c #D40000",
"l  c #F20000",
"z  c #BD5D3B",
"x  c #CB5536",
"c  c #84794B",
"v  c #877F5A",
"b  c #867D5C",
"n  c #9D735C",
"m  c #988847",
"M  c #8D8150",
"N  c #8E845F",
"B  c #918551",
"V  c #988C56",
"C  c #9B8E5A",
"Z  c #AD9B53",
"A  c #A4975C",
"S  c #928760",
"D  c #968660",
"F  c #988760",
"G  c #978D66",
"H  c #B7A569",
"J  c #BEAF6E",
"K  c #BFB070",
"L  c #CAB766",
"P  c #C0B06E",
"I  c #C2B26F",
"U  c #C2B473",
"Y  c #C3B474",
"T  c #C5B675",
"R  c #C5B576",
"E  c #C8B772",
"W  c #C8B773",
"Q  c #CDBC75",
"!  c #CEBD75",
"~  c #CEBD76",
"^  c #C7B87B",
"/  c #CABA7A",
"(  c #D5C065",
")  c #D6C167",
"_  c #D9C56E",
"`  c #D2C078",
"'  c #D3C179",
"]  c #D5C47B",
"[  c #D9C77E",
"{  c #DDCA78",
"}  c #DAC87F",
"|  c #DBC97F",
" . c #BEB485",
".. c #BAB08B",
"X. c #B7AF91",
"o. c #C2B684",
"O. c #C1B998",
"+. c #CFC081",
"@. c #CDC18F",
"#. c #DBC980",
"$. c #DCCA80",
"%. c #DCCA81",
"&. c #DDCB81",
"*. c #DDCC82",
"=. c #DECC83",
"-. c #D8C886",
";. c #DECD84",
":. c #DFCD84",
">. c #DCCC87",
",. c #D9CA8B",
"<. c #DECF8E",
"1. c #DFD08F",
"2. c #D1C590",
"3. c #DDCE90",
"4. c #D7CC9D",
"5. c #E1D089",
"6. c #E4D38E",
"7. c #E0D190",
"8. c #E0D396",
"9. c #E4D594",
"0. c #E7D794",
"q. c #EAD994",
"w. c #E9D997",
"e. c #E4D69A",
"r. c #E9DA98",
"t. c #EADA98",
"y. c #EADB99",
"u. c #E8DA9A",
"i. c #EADB9A",
"p. c #EBDB9A",
"a. c #E8DA9C",
"s. c #ECDC9C",
"d. c #ECDD9C",
"f. c #ECDD9D",
"g. c #EDDE9E",
"h. c #EDDE9F",
"j. c #D1C7A4",
"k. c #D6CCA2",
"l. c #E5D8A2",
"z. c #EBDDA0",
"x. c #ECDDA0",
"c. c #ECDEA1",
"v. c #EDDEA1",
"b. c #EDDFA2",
"n. c #EDE0A2",
"m. c #EEE0A3",
"M. c #EFE1A4",
"N. c #EFE2A5",
"B. c #F0E1A4",
"V. c #F0E2A5",
"C. c #F1E2A5",
"Z. c #F1E3A5",
"A. c #F1E2A6",
"S. c #F1E3A6",
"D. c #F1E3A7",
"F. c #F2E3A6",
"G. c #F2E3A7",
"H. c #F1E4A7",
"J. c #F2E4A7",
"K. c #F2E3A8",
"L. c #F2E4A8",
"P. c #F2E5A8",
"I. c #F2E4A9",
"U. c #F2E5A9",
"Y. c #F3E5A9",
"T. c #F3E5AA",
"R. c #F3E5AB",
"E. c #F3E6AA",
"W. c #F3E6AB",
"Q. c #F4E5AA",
"!. c #F4E5AB",
"~. c #F4E6AA",
"^. c #F4E6AB",
"/. c #F3E6AE",
"(. c #F4E6AC",
"). c #F4E7AC",
"_. c #F5E7AC",
"`. c #F5E7AD",
"'. c #F4E6AE",
"]. c #F4E7AE",
"[. c #F5E7AE",
"{. c #F5E8AE",
"}. c #F5E8AF",
"|. c #F6E8AE",
" X c #F6E8AF",
".X c #F6E9AF",
"XX c #EDE2B4",
"oX c #F4E7B0",
"OX c #F0E4B4",
"+X c #F4E7B6",
"@X c #F5E8B1",
"#X c #F6E9B0",
"$X c #F7E9B1",
"%X c #F7EAB1",
"&X c #F7E9B2",
"*X c #F6E9B3",
"=X c #F7EAB2",
"-X c #F8EAB2",
";X c #F8EAB3",
":X c #F8EBB3",
">X c #F8EBB4",
",X c #F9EBB4",
"<X c #F9EBB5",
"1X c #F9ECB5",
"2X c #F9ECB6",
"3X c #F9ECB7",
"4X c #FAECB6",
"5X c #FAECB7",
"6X c #FAEDB7",
"7X c #F6EBBD",
"8X c #F7ECBC",
"9X c #F8ECBD",
/* pixels */
"                                                    X.p XX>     ",
"    G S.].S.].9X9Xu 0       l k f h   v 0 9X8XS.S.S.S.s.q.5.;   ",
"  S &.&.&.i.i.i.S.S.S.S.S., k k n ..S.S.S.S.S.i.i.=.&.&.&.&.^ $ ",
"N C &.&.&.&.&.&.&.&.&.i.s.: k k F s.9.&.&.&.&.&.&.&.&.&.&.&.:.1 ",
"< y &.&.#.&.&.&.&.&.&.&.&.= j f z &.&.&.&.&.&.&.&.&.#.&.&.| L 3 ",
"2 Z ' ' | &.&.&.&.&.&.&.&.H a a x #.&.&.&.&.&.| | | Q Q Q Q 8   ",
"  . E I Q Q Q Q Q ' Q Q Q Q f o # I Q Q Q Q Q Q Q E O O O X     ",
"      -.-.-.-.-.-.-.-.-.7.i.D <.-.-.-.-.-.-.-.-.-.-.-.-.-.      ",
"      S.M.S.S.S.S.S.S.S.S.T 3.+.+.S.S.b.S.S.S.S.S.S.S.S.1.      ",
"      S.U S.J S.S.S.S.S.Y S.H.L.L.H.b./ S.S.S.z.S.S.b.S.S.      ",
"      S.S.S.S.S.S.H.H.L.L.L.L.^.^.L.L.L.L.L.H.S.S.S.S.S.S.      ",
"      S.S.S.S.H.S.L.L.^.].]. X X X X].].^.L.L.S.H.S.S.S.S.      ",
"    t S.S.S.H.K.L.L.]. X#X#X:X:X:X:X#X#X X].L.L.K.H.S.S.S.      ",
"      S.S.S.H.L.L.]. X#X:X<X2X2X2X2X<X:X#X#X].L.L.H.S.S.S.      ",
"      #XS.H.L.L.]. X#X<X2X2X2X2X2X2X2X<X<X#X X].L.L.H.S.S.      ",
"      S.S.S.L.L.].#X:X<X2X2X2X2X2X2X2X2X2X:X#X].L.L.H.S.S.      ",
"      #XS.S.L.^. X#X<X2X2X2X2X2X2X2X2X2X2X<X#X X^.L.H.S. .      ",
"      S.S.S.L.^. X#X<X2X2X2X2X2X2X2X2X2X2X<X#X X^.L.S.S.S.      ",
"      S.S.H.L.L.].#X:X2X2X2X2X2X2X2X2X2X2X:X#X].L.L.H.S.S.      ",
"      S.S.S.L.L.]. X#X:X2X2X2X2X2X2X2X2X<X#X X].L.H.S.S.S.      ",
"      S.S.S.H.L.L.]. X#X:X<X2X2X2X<X<X:X#X X].L.L.H.S.S.S.      ",
"      S.S.S.S.S.L.L.]. X#X#X#X:X:X#X#X X X].L.L.S.S.S.S.S.      ",
"      9.S.S.S.S.S.L.L.^.].]. X X X].].].^.L.L.S.S.n.S.S.S.      ",
"      S.S.S.S.K S.H.S.L.L.T L.L.L.L.e.L.L.S.H.M.M.S.S.S.S.      ",
"      S.b.b.S.S.S.S.b.n.M.a.S.K.K.,.S.8.b.n.S.S.S.S.S.S.S.      ",
"  k.4.7X+ $ ) _ _ _ q.S.S.S.S.S.S.S.S.S.S.S.S.{ _ _ _ _ _ $ O.  ",
"  9XS.S.S.j./.2.o.OX+X* @ - ) ) ) ) ) ) ) ) m @ @ @ @ @.l./.S.b ",
"  s.S.S.S.S.S.S.S.S.S.S.L.oXoXoXoXoXoXoXoXoXoXS.S.S.S.S.S.S.S.i ",
"  =.5.:.:.s.6.6.6.6.s.S.S.S.S.S.S.S.S.S.S.S.S.S.S.S.i.6.i.6.=.r ",
"  M &.&.] &.&.&.&.&.&.&.&.&.&.&.&.&.&.&.&.&.&.&.&.&.&.&.&.&.[   ",
"    w c 9 4 4 4 V                             A 6 4 4 7 6 e B   "
};
