/* XPM */
static char *_79fc9f472c1474c955b14dce15fae8a06nZtlZ6VUETGrpm[] = {
/* columns rows colors chars-per-pixel */
"32 32 204 2 ",
"   c None",
".  c black",
"X  c #120E05",
"o  c #120E06",
"O  c #120F06",
"+  c #130F06",
"@  c #120E07",
"#  c #2E2919",
"$  c #342F1E",
"%  c #3D2A1C",
"&  c #35301B",
"*  c #38321D",
"=  c #39341E",
"-  c #3D2C20",
";  c #3A3523",
":  c #3B3626",
">  c #3C3624",
",  c #3C3724",
"<  c #3F3A26",
"1  c #443D23",
"2  c #403B27",
"3  c #4A4227",
"4  c #4D452A",
"5  c #595231",
"6  c #5A533B",
"7  c #70663E",
"8  c #6D654A",
"9  c #756349",
"0  c #767056",
"q  c #7D7559",
"w  c #B60000",
"e  c #C10000",
"r  c #D40000",
"t  c #E70000",
"y  c #C72C1C",
"u  c #C9291A",
"i  c #D62C1C",
"p  c #D13224",
"a  c #AD4E31",
"s  c #C75E3C",
"d  c #F14339",
"f  c #AC5A42",
"g  c #847D61",
"h  c #987A63",
"j  c #D86540",
"k  c #E37254",
"l  c #93813D",
"z  c #8D824F",
"x  c #A1935C",
"c  c #A3935C",
"v  c #A99858",
"b  c #8F8660",
"n  c #9B9168",
"m  c #9C936B",
"M  c #A5996D",
"N  c #B3A467",
"B  c #B9AA69",
"V  c #ADA173",
"C  c #ABA074",
"Z  c #ABA174",
"A  c #B7AB76",
"S  c #B9AB72",
"D  c #C2AF61",
"F  c #C2B16E",
"G  c #C6B672",
"H  c #C7B776",
"J  c #C9B873",
"K  c #CAB975",
"L  c #CCBB76",
"P  c #CEBD76",
"I  c #CFBE77",
"U  c #C9BB7B",
"Y  c #CEBD78",
"T  c #CDBF7E",
"R  c #CEBF7F",
"E  c #D0BF77",
"W  c #D2C078",
"Q  c #D5C37A",
"!  c #D6C47B",
"~  c #D7C57C",
"^  c #D8C67D",
"/  c #D8C77D",
"(  c #DAC87F",
")  c #DAC97F",
"_  c #DBC97F",
"`  c #C7BB8B",
"'  c #CFC181",
"]  c #D0C080",
"[  c #DBC980",
"{  c #DCCB81",
"}  c #DDCB81",
"|  c #DECC82",
" . c #DECC83",
".. c #D4C48A",
"X. c #D7C98A",
"o. c #D8C98A",
"O. c #DBCB8A",
"+. c #DCCC8B",
"@. c #D8CA8F",
"#. c #DCCC8C",
"$. c #DECF8C",
"%. c #DDD099",
"&. c #E0CF86",
"*. c #E1D089",
"=. c #E3D28C",
"-. c #E3D28D",
";. c #E5D48F",
":. c #E5D58F",
">. c #E0D191",
",. c #E2D293",
"<. c #E6D591",
"1. c #E6D693",
"2. c #E1D395",
"3. c #E3D494",
"4. c #E7D794",
"5. c #E5D697",
"6. c #E6D696",
"7. c #E8D895",
"8. c #E5D698",
"9. c #E7D798",
"0. c #EBDB9A",
"q. c #EBDB9B",
"w. c #EBDD9D",
"e. c #EADC9E",
"r. c #EADC9F",
"t. c #EDDE9E",
"y. c #ECDE9F",
"u. c #EBDDA1",
"i. c #EBDDA2",
"p. c #EDDFA1",
"a. c #EEDFA0",
"s. c #E7DBAB",
"d. c #EEE0A3",
"f. c #EFE1A3",
"g. c #EDE0A4",
"h. c #F0E1A4",
"j. c #F0E2A5",
"k. c #F1E3A5",
"l. c #F1E2A6",
"z. c #F0E3A6",
"x. c #F1E3A6",
"c. c #F1E3A7",
"v. c #F2E3A6",
"b. c #F2E3A7",
"n. c #F1E4A6",
"m. c #F1E4A7",
"M. c #F2E4A7",
"N. c #F2E3A8",
"B. c #F2E4A8",
"V. c #F2E5A8",
"C. c #F2E4A9",
"Z. c #F3E4A9",
"A. c #F2E5A9",
"S. c #F3E5A9",
"D. c #F2E5AA",
"F. c #F3E5AA",
"G. c #F3E6AB",
"H. c #F4E5AB",
"J. c #F4E6AB",
"K. c #F3E5AC",
"L. c #F4E6AC",
"P. c #F5E6AC",
"I. c #F4E7AC",
"U. c #F5E7AC",
"Y. c #F5E7AD",
"T. c #F5E7AE",
"R. c #F4E7AF",
"E. c #F5E8AD",
"W. c #F5E8AE",
"Q. c #F5E8AF",
"!. c #F6E8AF",
"~. c #F6E9AF",
"^. c #EFE3B1",
"/. c #EEE3BB",
"(. c #F3E6B0",
"). c #F4E7B0",
"_. c #F6E8B0",
"`. c #F6E9B0",
"'. c #F6E9B1",
"]. c #F7E9B1",
"[. c #F4E8B2",
"{. c #F7E9B2",
"}. c #F7EAB2",
"|. c #F5E9B4",
" X c #F6EAB7",
".X c #F8EAB3",
"XX c #F8EBB3",
"oX c #F8EAB4",
"OX c #F8EBB4",
"+X c #F9EBB4",
"@X c #F9EBB5",
"#X c #F8ECB4",
"$X c #F9ECB5",
"%X c #F9ECB6",
"&X c #F9EDB6",
"*X c #F9ECB7",
"=X c #FAECB6",
"-X c #FAECB7",
";X c #FAEDB7",
":X c #F8EBB8",
">X c #F9EDBB",
",X c #F8ECBD",
"<X c #F7ECC0",
"1X c #FAEFC5",
/* pixels */
"          2 1Xg 6                               < ,             ",
"        M 1.1.1.x.x.).^.b - t d h %.n m |.K.x.y.1.#.A           ",
"      : q K } }  . . .x.x.p r k u.x.x.x.6. . . .} Y $ #         ",
"      V H } _ } } } } } } i r j } } } } } } } } } [ D l         ",
"        1 G ! } } } ^ } } y e s [ } } } } } } Q W P v           ",
"          F P P P P P P P u w a J P P P P P P P P F             ",
"          o 3.3.3.3.3.3.#.% f 9 ..>.>.3.3.3.3.3.o.o             ",
"          o x.R x.x.d.x.d.c g.n.n.B o.x.U x.x.' 6.o             ",
"          o x.2.x.x.x.x.n.x.V.V.V.x.n.x.x.x.x.x.x.o             ",
"          o x.x.x.x.x.x.x.x.x.x.x.x.x.x.x.x.x.x.x.o             ",
"          o x.x.x.x.V.V.V.. . . . . n.. x.x.x.x.x.o             ",
"          o x.x.x.n.V.. . E.Y.E.Y.. . . x.x.x.x.x.              ",
"          o x.x.n.V.. . _._._._.E.E.. . n.n.n.x.x.              ",
"            x.x.x.V.. . .X+X+X+X_._.Y.. V.V.n.x.x.o             ",
"          o x.x.V.. . .X&X&X&X+X&X_._.. V.V.V.x.x.o             ",
"            >Xx.V.. . &X&X&X&X&X&X+X_.E.V.V.V.x.:X              ",
"            x.x.V.. . &X&X&X&X&X&X&X+X_.H.H.V.x.x.o             ",
"            x.x.V.. . &X&X&X&X&X&X&X+X_.Y.Y.V.x.x.o             ",
"          o x.n.V.. . &X&X&X&X&X&X&X&X_.Y.Y.V.x.x.              ",
"          o x.x.N.. . &X&X&X&X&X&X&X.X_.Y.Y.V.x.x.              ",
"          o x.x.n._.. . &X&X&X&X&X&X.XE.. x.x.x.x.o             ",
"          o x.x.x.Y.. . &X&X&X&X&X+X_.. V.V.n.x.x.o             ",
"          o x.x.x.H.E.. . . &X&X+X_.. . V.V.n.x.x.o             ",
"          o x.x.x.V.Y.E._.. . . . . Y.V.V.V.x.x.x.              ",
"            x.x.x.x.x.V.V.H.Y.Y.Y.H.V.V.x.x.x.x.x.              ",
"            x.x.R x.x.x.n.V.V.V.V.w.V.x.x.X.x.x.x.              ",
"          o  .:.a.x.x.x.x.w.n.x.u.x.x.x.x.d.x.x.-.o             ",
"      0 x.,Xs.] -.6.9.} } 7.0.0.0.0.0.0.@.Z 9.S +.8 |.          ",
"      <X0.x.x.x.x.Y._.0.0.0.0.w.y.0.0.0.@.Z (.` V.x.x.;         ",
"      /.1.a.d.x.x.x.x.x.x.x.x.x.x.x.x.x.x.x.x.x.:.a.1.,         ",
"      3 _ } &.*.} } } } } } c N L ^ } } } } } } } ~ _           ",
"        z E P 7 * =                         5 * * & 4           "
};
