/* XPM */
static char *_f79b01d1b8040abc9f0b00d802e942cZ1Snm1sbePXhjpYE[] = {
/* columns rows colors chars-per-pixel */
"64 64 3 1 ",
"  c #4FA4B8",
". c #92E8C0",
"X c #F5FFE8",
/* pixels */
"            XXXX....    ....    ....    ....    ....    ....    ",
"            XXXX....    ....    ....    ....    ....    ....    ",
"            XXXX....    ....    ....    ....    ....    ....    ",
"            XXXX....    ....    ....    ....    ....    ....    ",
"        XXXX....XXXX                                            ",
"        XXXX....XXXX                                            ",
"        XXXX....XXXX                                            ",
"        XXXX....XXXX                                            ",
"    XXXX............XXXX                                        ",
"    XXXX............XXXX                                        ",
"    XXXX............XXXX                                        ",
"    XXXX............XXXX                                        ",
"XXXX........    ........XXXXXXXX    XXXX            XXXX    XXXX",
"XXXX........    ........XXXXXXXX    XXXX            XXXX    XXXX",
"XXXX........    ........XXXXXXXX    XXXX            XXXX    XXXX",
"XXXX........    ........XXXXXXXX    XXXX            XXXX    XXXX",
"........    ....    ............XXXX    ....    ....    XXXX....",
"........    ....    ............XXXX    ....    ....    XXXX....",
"........    ....    ............XXXX    ....    ....    XXXX....",
"........    ....    ............XXXX    ....    ....    XXXX....",
"....    ....    ....    ....    ....                        XXXX",
"....    ....    ....    ....    ....                        XXXX",
"....    ....    ....    ....    ....                        XXXX",
"....    ....    ....    ....    ....                        XXXX",
"XXXX                                                    XXXX....",
"XXXX                                                    XXXX....",
"XXXX                                                    XXXX....",
"XXXX                                                    XXXX....",
"....XXXX                                            XXXX........",
"....XXXX                                            XXXX........",
"....XXXX                                            XXXX........",
"....XXXX                                            XXXX........",
"........XXXXXXXX    XXXX            XXXX    XXXXXXXX........    ",
"........XXXXXXXX    XXXX            XXXX    XXXXXXXX........    ",
"........XXXXXXXX    XXXX            XXXX    XXXXXXXX........    ",
"........XXXXXXXX    XXXX            XXXX    XXXXXXXX........    ",
"    ............XXXX    ....    ....    XXXX............    ....",
"    ............XXXX    ....    ....    XXXX............    ....",
"    ............XXXX    ....    ....    XXXX............    ....",
"    ............XXXX    ....    ....    XXXX............    ....",
"....    ....    ....                    ....    ....    ....    ",
"....    ....    ....                    ....    ....    ....    ",
"....    ....    ....                    ....    ....    ....    ",
"....    ....    ....                    ....    ....    ....    ",
"                                    XXXX                        ",
"                                    XXXX                        ",
"                                    XXXX                        ",
"                                    XXXX                        ",
"                                XXXX....XXXX                    ",
"                                XXXX....XXXX                    ",
"                                XXXX....XXXX                    ",
"                                XXXX....XXXX                    ",
"                            XXXX............XXXX                ",
"                            XXXX............XXXX                ",
"                            XXXX............XXXX                ",
"                            XXXX............XXXX                ",
"            XXXX    XXXXXXXX........    ........XXXXXXXX    XXXX",
"            XXXX    XXXXXXXX........    ........XXXXXXXX    XXXX",
"            XXXX    XXXXXXXX........    ........XXXXXXXX    XXXX",
"            XXXX    XXXXXXXX........    ........XXXXXXXX    XXXX",
"....    ....    XXXX............    ....    ............XXXX    ",
"....    ....    XXXX............    ....    ............XXXX    ",
"....    ....    XXXX............    ....    ............XXXX    ",
"....    ....    XXXX............    ....    ............XXXX    "
};
