/* XPM */
static char *_f28b833bca6407eb6fe6f4021c60541rIT64a7FFPeQ8Nat[] = {
/* columns rows colors chars-per-pixel */
"64 64 3 1 ",
"  c #4FA4B8",
". c #92E8C0",
"X c #F5FFE8",
/* pixels */
"....    ....    ....    ....                XXXX....    ....    ",
"....    ....    ....    ....                XXXX....    ....    ",
"....    ....    ....    ....                XXXX....    ....    ",
"....    ....    ....    ....                XXXX....    ....    ",
"                                        XXXX....XXXX            ",
"                                        XXXX....XXXX            ",
"                                        XXXX....XXXX            ",
"                                        XXXX....XXXX            ",
"                                    XXXX............XXXX        ",
"                                    XXXX............XXXX        ",
"                                    XXXX............XXXX        ",
"                                    XXXX............XXXX        ",
"    XXXX            XXXX    XXXXXXXX........    ........XXXXXXXX",
"    XXXX            XXXX    XXXXXXXX........    ........XXXXXXXX",
"    XXXX            XXXX    XXXXXXXX........    ........XXXXXXXX",
"    XXXX            XXXX    XXXXXXXX........    ........XXXXXXXX",
"XXXX    ....    ....    XXXX............    ....    ............",
"XXXX    ....    ....    XXXX............    ....    ............",
"XXXX    ....    ....    XXXX............    ....    ............",
"XXXX    ....    ....    XXXX............    ....    ............",
"....                        XXXX....    ....    ....    ....    ",
"....                        XXXX....    ....    ....    ....    ",
"....                        XXXX....    ....    ....    ....    ",
"....                        XXXX....    ....    ....    ....    ",
"                        XXXX....XXXX                            ",
"                        XXXX....XXXX                            ",
"                        XXXX....XXXX                            ",
"                        XXXX....XXXX                            ",
"                    XXXX............XXXX                        ",
"                    XXXX............XXXX                        ",
"                    XXXX............XXXX                        ",
"                    XXXX............XXXX                        ",
"    XXXX    XXXXXXXX........    ........XXXXXXXX    XXXX        ",
"    XXXX    XXXXXXXX........    ........XXXXXXXX    XXXX        ",
"    XXXX    XXXXXXXX........    ........XXXXXXXX    XXXX        ",
"    XXXX    XXXXXXXX........    ........XXXXXXXX    XXXX        ",
"....    XXXX............    ....    ............XXXX    ....    ",
"....    XXXX............    ....    ............XXXX    ....    ",
"....    XXXX............    ....    ............XXXX    ....    ",
"....    XXXX............    ....    ............XXXX    ....    ",
"        ....    ....    ....    ....    ....    ....            ",
"        ....    ....    ....    ....    ....    ....            ",
"        ....    ....    ....    ....    ....    ....            ",
"        ....    ....    ....    ....    ....    ....            ",
"    XXXX                                                        ",
"    XXXX                                                        ",
"    XXXX                                                        ",
"    XXXX                                                        ",
"XXXX....XXXX                                                    ",
"XXXX....XXXX                                                    ",
"XXXX....XXXX                                                    ",
"XXXX....XXXX                                                    ",
"............XXXX                                            XXXX",
"............XXXX                                            XXXX",
"............XXXX                                            XXXX",
"............XXXX                                            XXXX",
"....    ........XXXXXXXX    XXXX            XXXX    XXXXXXXX....",
"....    ........XXXXXXXX    XXXX            XXXX    XXXXXXXX....",
"....    ........XXXXXXXX    XXXX            XXXX    XXXXXXXX....",
"....    ........XXXXXXXX    XXXX            XXXX    XXXXXXXX....",
"    ....    ............XXXX    ....    ....    XXXX............",
"    ....    ............XXXX    ....    ....    XXXX............",
"    ....    ............XXXX    ....    ....    XXXX............",
"    ....    ............XXXX    ....    ....    XXXX............"
};
